<?xml version="1.0" encoding="UTF-8" standalone="no"?>
<!-- Created with Inkscape (http://www.inkscape.org/) -->

<svg
   width="320"
   height="180"
   viewBox="0 0 84.666665 47.625"
   version="1.1"
   id="svg202"
   inkscape:version="1.2.2 (b0a8486541, 2022-12-01)"
   sodipodi:docname="card_abertamente.svg"
   xmlns:inkscape="http://www.inkscape.org/namespaces/inkscape"
   xmlns:sodipodi="http://sodipodi.sourceforge.net/DTD/sodipodi-0.dtd"
   xmlns:xlink="http://www.w3.org/1999/xlink"
   xmlns="http://www.w3.org/2000/svg"
   xmlns:svg="http://www.w3.org/2000/svg">
  <sodipodi:namedview
     id="namedview204"
     pagecolor="#ffffff"
     bordercolor="#cccccc"
     borderopacity="1"
     inkscape:showpageshadow="0"
     inkscape:pageopacity="1"
     inkscape:pagecheckerboard="0"
     inkscape:deskcolor="#d1d1d1"
     inkscape:document-units="mm"
     showgrid="false"
     inkscape:zoom="4.6551196"
     inkscape:cx="216.10615"
     inkscape:cy="105.7975"
     inkscape:window-width="3440"
     inkscape:window-height="1368"
     inkscape:window-x="1920"
     inkscape:window-y="0"
     inkscape:window-maximized="1"
     inkscape:current-layer="layer1" />
  <defs
     id="defs199">
    <linearGradient
       inkscape:collect="always"
       xlink:href="#linearGradient1383"
       id="linearGradient1385"
       x1="103.05264"
       y1="28.947365"
       x2="100.73684"
       y2="167.3158"
       gradientUnits="userSpaceOnUse"
       gradientTransform="matrix(1.2186847,0,0,0.6255636,-81.138673,-48.607351)" />
    <linearGradient
       inkscape:collect="always"
       id="linearGradient1383">
      <stop
         style="stop-color:#ffffff;stop-opacity:0.23943663;"
         offset="0"
         id="stop1379" />
      <stop
         style="stop-color:#ffffff;stop-opacity:0;"
         offset="1"
         id="stop1381" />
    </linearGradient>
    <linearGradient
       inkscape:collect="always"
       xlink:href="#linearGradient190370"
       id="linearGradient187608"
       gradientUnits="userSpaceOnUse"
       gradientTransform="matrix(0.38067129,0,0,0.38067129,197.16387,23.9599)"
       x1="-229.60646"
       y1="-5.6248026"
       x2="-229.60646"
       y2="68.238274" />
    <linearGradient
       inkscape:collect="always"
       id="linearGradient190370">
      <stop
         style="stop-color:#ffffff;stop-opacity:1;"
         offset="0"
         id="stop190366" />
      <stop
         style="stop-color:#e59501;stop-opacity:1"
         offset="1"
         id="stop190368" />
    </linearGradient>
  </defs>
  <g
     inkscape:label="Layer 1"
     inkscape:groupmode="layer"
     id="layer1">
    <rect
       style="fill:#165016;fill-opacity:1;stroke-width:0.356851;stroke-linecap:round;paint-order:stroke fill markers;stop-color:#000000"
       id="rect398"
       width="84.666664"
       height="47.625"
       x="1.8441895e-06"
       y="-2.3187499e-07"
       ry="0" />
    <path
       id="rect398-7"
       style="fill:url(#linearGradient1385);fill-opacity:1;stroke-width:0.346525;stroke-linecap:round;paint-order:stroke fill markers;stop-color:#000000"
       d="M 42.333333,24.188617 A 70.555432,19.37601 0 0 0 7.3722222e-7,28.077541 V 46.40139 C 7.3722222e-7,48.842526 3.8287796,50.807876 8.5844402,50.807876 H 76.082227 c 4.755653,0 8.584437,-1.96535 8.584437,-4.406486 V 28.064937 a 70.555432,19.37601 0 0 0 -42.333331,-3.87632 z" />
    <g
       id="g6446"
       transform="translate(20.480336,20.505208)">
      <g
         id="g715">
        <g
           aria-label="abertamente"
           id="text1369-7-6-4"
           style="font-size:8.03951px;fill:#ffffff;stroke-width:0.200989">
          <path
             d="m 7.5096167,4.0465579 q 0,-0.1570939 0.092408,-0.2864653 Q 7.6944327,3.6307212 7.842286,3.5475538 7.990139,3.4551458 8.1841961,3.4089416 8.3874941,3.3627376 8.6000329,3.3627376 H 9.043592 q 0.046204,0 0.101649,0.00924 0.064686,0 0.1201306,0.018482 0.055445,0.00924 0.101649,0.036963 0.055445,0.018482 0.083167,0.036963 V 3.0762722 q 0,-0.1293714 -0.101649,-0.1940571 Q 9.2468901,2.8175294 9.0805554,2.8175294 H 8.8125717 q -0.1755755,0 -0.2772245,0.064686 -0.1016489,0.064686 -0.1016489,0.1940571 v 0.092408 H 7.5465799 V 2.9838641 q 0,-0.1570939 0.083167,-0.2864653 Q 7.7221555,2.5680274 7.8700085,2.48486 8.0271024,2.3924519 8.2211595,2.3462478 8.4152166,2.3000437 8.6277554,2.3000437 h 0.6283755 q 0.2125387,0 0.4065959,0.046204 0.1940571,0.046204 0.3419102,0.1386122 0.157094,0.083167 0.240261,0.2125388 0.09241,0.1293714 0.09241,0.2864653 V 5.192419 H 9.450188 V 5.109252 Q 9.2468901,5.192419 8.997388,5.192419 H 8.600033 q -0.2125388,0 -0.4158368,-0.046204 Q 7.9901391,5.1000109 7.8422861,5.0168436 7.694433,4.9244354 7.6020248,4.795064 7.5096167,4.6656925 7.5096167,4.5085987 Z M 9.450188,4.1297252 Q 9.4409472,4.0003538 9.3392982,3.9449089 9.2468901,3.8802232 9.0805554,3.8802232 H 8.7756085 q -0.1755755,0 -0.2772245,0.064686 -0.101649,0.064686 -0.101649,0.1940571 v 0.2772245 q 0,0.1293714 0.101649,0.1940572 0.101649,0.064686 0.2772245,0.064686 h 0.3049469 q 0.1663347,0 0.2679836,-0.064686 0.101649,-0.064686 0.101649,-0.1940572 z"
             style="-inkscape-font-specification:'Dhurjati, Normal'"
             id="path560" />
          <path
             d="m 13.941223,4.5085987 q 0,0.1570938 -0.09241,0.2864653 -0.08317,0.1293714 -0.240261,0.2217796 -0.147853,0.083167 -0.34191,0.1293714 -0.194058,0.046204 -0.415837,0.046204 h -0.471282 q -0.249502,0 -0.4528,-0.083167 V 5.192419 H 11.039607 V 1.4221662 h 0.887118 v 0.9795265 q 0.03696,-0.018482 0.08317,-0.036963 0.0462,-0.027722 0.101649,-0.036963 0.05544,-0.018482 0.110889,-0.018482 0.06469,-0.00924 0.120131,-0.00924 h 0.508245 q 0.221779,0 0.415837,0.046204 0.194057,0.046204 0.34191,0.1386122 0.157094,0.083167 0.240261,0.2125388 0.09241,0.1293714 0.09241,0.2864653 z m -2.014498,-0.092408 q 0,0.1293714 0.101649,0.1940572 0.101649,0.064686 0.277225,0.064686 h 0.369632 q 0.175576,0 0.277225,-0.064686 0.101649,-0.064686 0.101649,-0.1940572 V 3.0762722 q 0,-0.1293714 -0.101649,-0.1940571 -0.101649,-0.064686 -0.277225,-0.064686 h -0.369632 q -0.166335,0 -0.267984,0.064686 -0.101649,0.055445 -0.11089,0.1848163 z"
             style="-inkscape-font-specification:'Dhurjati, Normal'"
             id="path562" />
          <path
             d="m 17.397294,3.8525008 h -1.903608 v 0.5636897 q 0,0.1293714 0.101649,0.1940572 0.101648,0.064686 0.277224,0.064686 h 0.267984 q 0.166334,0 0.267983,-0.064686 0.101649,-0.064686 0.101649,-0.1940572 V 4.2313742 h 0.887119 v 0.2679837 q 0,0.1663346 -0.09241,0.2957061 -0.08317,0.1293714 -0.240261,0.2217796 -0.147853,0.083167 -0.34191,0.1293714 -0.194057,0.046204 -0.406596,0.046204 h -0.619135 q -0.212538,0 -0.415836,-0.046204 Q 15.08709,5.1000109 14.939237,5.0168436 14.791384,4.9244354 14.698975,4.795064 14.606567,4.6656925 14.606567,4.4993579 V 2.9838641 q 0,-0.1663347 0.09241,-0.2957061 0.09241,-0.1293715 0.240262,-0.2125388 0.147853,-0.092408 0.34191,-0.1386122 0.203298,-0.046204 0.415836,-0.046204 h 0.619135 q 0.212539,0 0.406596,0.046204 0.194057,0.046204 0.34191,0.1386122 0.157094,0.083167 0.240261,0.2125388 0.09241,0.1293714 0.09241,0.2957061 z M 16.510175,3.0670314 q 0,-0.1293714 -0.101649,-0.1940571 -0.101649,-0.064686 -0.267983,-0.064686 h -0.267984 q -0.175576,0 -0.277224,0.064686 -0.101649,0.064686 -0.101649,0.1940571 v 0.2679837 h 1.016489 z"
             style="-inkscape-font-specification:'Dhurjati, Normal'"
             id="path564" />
          <path
             d="M 18.958988,5.1924191 H 18.07187 V 2.3000437 h 0.887118 v 0.2217796 q 0.0462,-0.046204 0.11089,-0.083167 0.06469,-0.046204 0.147853,-0.073927 0.09241,-0.027722 0.194057,-0.046204 0.101649,-0.018482 0.212539,-0.018482 h 0.157094 V 2.8175294 H 19.5504 q -0.12013,0 -0.23102,0.027722 -0.101649,0.027722 -0.184816,0.083167 -0.07393,0.046204 -0.129372,0.1201306 -0.0462,0.073927 -0.0462,0.1663347 z"
             style="-inkscape-font-specification:'Dhurjati, Normal'"
             id="path566" />
          <path
             d="m 22.054664,2.3000437 v 0.5174857 h -0.56369 v 1.5986611 q 0,0.1293714 0.09241,0.1940572 0.101649,0.064686 0.277225,0.064686 h 0.23102 v 0.5174857 h -0.406596 q -0.212539,0 -0.415837,-0.046204 Q 21.075137,5.1000109 20.927284,5.0168436 20.779431,4.9244354 20.687023,4.795064 20.594615,4.6656925 20.594615,4.4993579 V 2.8175294 H 20.058647 V 2.3000437 h 0.535968 V 1.6439458 h 0.896359 v 0.6560979 z"
             style="-inkscape-font-specification:'Dhurjati, Normal'"
             id="path568" />
          <path
             d="m 22.562904,4.0465579 q 0,-0.1570939 0.09241,-0.2864653 0.09241,-0.1293714 0.240262,-0.2125388 0.147853,-0.092408 0.34191,-0.1386122 0.203298,-0.046204 0.415836,-0.046204 h 0.44356 q 0.0462,0 0.101649,0.00924 0.06469,0 0.12013,0.018482 0.05544,0.00924 0.101649,0.036963 0.05545,0.018482 0.08317,0.036963 V 3.0762722 q 0,-0.1293714 -0.101649,-0.1940571 -0.101649,-0.064686 -0.267984,-0.064686 h -0.267984 q -0.175575,0 -0.277224,0.064686 -0.101649,0.064686 -0.101649,0.1940571 v 0.092408 H 22.599867 V 2.9838641 q 0,-0.1570939 0.08317,-0.2864653 0.09241,-0.1293714 0.240261,-0.2125388 0.157094,-0.092408 0.351151,-0.1386122 0.194057,-0.046204 0.406596,-0.046204 h 0.628375 q 0.212539,0 0.406596,0.046204 0.194057,0.046204 0.34191,0.1386122 0.157094,0.083167 0.240262,0.2125388 0.09241,0.1293714 0.09241,0.2864653 v 2.208555 H 24.50348 v -0.083167 q -0.203298,0.083167 -0.4528,0.083167 h -0.39736 q -0.212538,0 -0.415836,-0.046204 -0.194057,-0.046204 -0.34191,-0.1293714 -0.147853,-0.092408 -0.240262,-0.2217796 -0.09241,-0.1293715 -0.09241,-0.2864653 z m 1.940572,0.083167 q -0.0092,-0.1293714 -0.11089,-0.1848163 -0.09241,-0.064686 -0.258743,-0.064686 h -0.304947 q -0.175576,0 -0.277225,0.064686 -0.101648,0.064686 -0.101648,0.1940571 v 0.2772245 q 0,0.1293714 0.101648,0.1940572 0.101649,0.064686 0.277225,0.064686 h 0.304947 q 0.166335,0 0.267984,-0.064686 0.101649,-0.064686 0.101649,-0.1940572 z"
             style="-inkscape-font-specification:'Dhurjati, Normal'"
             id="path570" />
          <path
             d="M 26.943049,5.1924191 H 26.055931 V 2.3000437 h 0.887118 v 0.1755755 q 0.129372,-0.073927 0.277225,-0.1201306 0.147853,-0.055445 0.323428,-0.055445 h 0.258743 q 0.258743,0 0.480523,0.064686 0.23102,0.064686 0.388114,0.1940571 0.194057,-0.1386122 0.397355,-0.1940571 0.212539,-0.064686 0.406596,-0.064686 h 0.258743 q 0.212538,0 0.406596,0.046204 0.203297,0.046204 0.351151,0.1386122 0.147853,0.083167 0.240261,0.2125388 0.09241,0.1201306 0.09241,0.2864653 v 2.208555 H 29.927833 V 3.0762722 q 0,-0.1386122 -0.101649,-0.1940571 -0.09241,-0.064686 -0.267984,-0.064686 h -0.157094 q -0.09241,0 -0.184816,0.027722 -0.09241,0.018482 -0.166335,0.064686 -0.06469,0.036963 -0.11089,0.092408 -0.0462,0.055445 -0.05544,0.1201306 V 5.1924191 H 27.996502 V 3.0762722 q 0,-0.1386122 -0.101649,-0.1940571 -0.101649,-0.064686 -0.267983,-0.064686 h -0.166335 q -0.101649,0 -0.194057,0.027722 -0.09241,0.027722 -0.166335,0.073927 -0.07393,0.046204 -0.12013,0.1108897 -0.03696,0.064686 -0.03696,0.1386123 z"
             style="fill:#00ff00"
             id="path572" />
          <path
             d="m 34.307976,3.8525008 h -1.903608 v 0.5636897 q 0,0.1293714 0.101649,0.1940572 0.101649,0.064686 0.277225,0.064686 h 0.267983 q 0.166335,0 0.267984,-0.064686 0.101649,-0.064686 0.101649,-0.1940572 V 4.2313742 h 0.887118 v 0.2679837 q 0,0.1663346 -0.09241,0.2957061 -0.08317,0.1293714 -0.240261,0.2217796 -0.147853,0.083167 -0.34191,0.1293714 -0.194057,0.046204 -0.406596,0.046204 h -0.619135 q -0.212539,0 -0.415837,-0.046204 Q 31.997772,5.1000109 31.849919,5.0168436 31.702066,4.9244354 31.609658,4.795064 31.51725,4.6656925 31.51725,4.4993579 V 2.9838641 q 0,-0.1663347 0.09241,-0.2957061 0.09241,-0.1293715 0.240261,-0.2125388 0.147853,-0.092408 0.34191,-0.1386122 0.203298,-0.046204 0.415837,-0.046204 h 0.619135 q 0.212539,0 0.406596,0.046204 0.194057,0.046204 0.34191,0.1386122 0.157094,0.083167 0.240261,0.2125388 0.09241,0.1293714 0.09241,0.2957061 z M 33.420858,3.0670314 q 0,-0.1293714 -0.101649,-0.1940571 -0.101649,-0.064686 -0.267984,-0.064686 h -0.267983 q -0.175576,0 -0.277225,0.064686 -0.101649,0.064686 -0.101649,0.1940571 v 0.2679837 h 1.01649 z"
             style="fill:#00ff00"
             id="path574" />
          <path
             d="M 35.86967,5.1924191 H 34.982551 V 2.3000437 h 0.887119 v 0.1755755 q 0.101649,-0.083167 0.258743,-0.1293714 0.166334,-0.046204 0.34191,-0.046204 h 0.323428 q 0.22178,0 0.415837,0.046204 0.194057,0.046204 0.34191,0.1386122 0.157094,0.083167 0.240261,0.2125388 0.09241,0.1201306 0.09241,0.2864653 v 2.208555 h -0.88712 V 3.0762722 q 0,-0.1386122 -0.101649,-0.1940571 -0.101649,-0.064686 -0.277224,-0.064686 h -0.231021 q -0.101649,0 -0.194057,0.027722 -0.09241,0.027722 -0.166334,0.073927 -0.07393,0.046204 -0.120131,0.1108897 -0.03696,0.064686 -0.03696,0.1386123 z"
             style="fill:#00ff00"
             id="path576" />
          <path
             d="m 40.332982,2.3000437 v 0.5174857 h -0.56369 v 1.5986611 q 0,0.1293714 0.09241,0.1940572 0.101648,0.064686 0.277224,0.064686 h 0.23102 V 5.1924194 H 39.96335 q -0.212538,0 -0.415836,-0.046204 Q 39.353456,5.1000109 39.205603,5.0168436 39.05775,4.9244354 38.965341,4.795064 38.872933,4.6656925 38.872933,4.4993579 V 2.8175294 H 38.336966 V 2.3000437 h 0.535967 V 1.6439458 h 0.896359 v 0.6560979 z"
             style="fill:#00ff00"
             id="path578" />
          <path
             d="m 43.631951,3.8525008 h -1.903608 v 0.5636897 q 0,0.1293714 0.101649,0.1940572 0.101649,0.064686 0.277224,0.064686 H 42.3752 q 0.166335,0 0.267984,-0.064686 0.101649,-0.064686 0.101649,-0.1940572 V 4.2313742 h 0.887118 v 0.2679837 q 0,0.1663346 -0.09241,0.2957061 -0.08317,0.1293714 -0.240261,0.2217796 -0.147854,0.083167 -0.341911,0.1293714 -0.194057,0.046204 -0.406596,0.046204 h -0.619134 q -0.212539,0 -0.415837,-0.046204 Q 41.321747,5.1000109 41.173894,5.0168436 41.026041,4.9244354 40.933633,4.795064 40.841225,4.6656925 40.841225,4.4993579 V 2.9838641 q 0,-0.1663347 0.09241,-0.2957061 0.09241,-0.1293715 0.240261,-0.2125388 0.147853,-0.092408 0.34191,-0.1386122 0.203298,-0.046204 0.415837,-0.046204 h 0.619134 q 0.212539,0 0.406596,0.046204 0.194057,0.046204 0.341911,0.1386122 0.157093,0.083167 0.240261,0.2125388 0.09241,0.1293714 0.09241,0.2957061 z M 42.744833,3.0670314 q 0,-0.1293714 -0.101649,-0.1940571 -0.101649,-0.064686 -0.267984,-0.064686 h -0.267984 q -0.175575,0 -0.277224,0.064686 -0.101649,0.064686 -0.101649,0.1940571 v 0.2679837 h 1.01649 z"
             style="fill:#00ff00"
             id="path580" />
        </g>
        <path
           id="rect46675-5"
           style="display:inline;fill:#ffffff;stroke-width:0.0509103"
           d="m 0.07403937,0.02400367 2.86297003,0.795773 V 5.7948067 l -2.86297003,0.795773 z"
           sodipodi:nodetypes="ccccc" />
        <rect
           style="display:inline;fill:#918a6f;fill-opacity:1;stroke-width:0.0443814"
           id="rect46675-3"
           width="2.8629692"
           height="4.9903135"
           x="2.9946373"
           y="0.81213492" />
      </g>
    </g>
  </g>
</svg>
