<?xml version="1.0" encoding="UTF-8" standalone="no"?>
<!-- Created with Inkscape (http://www.inkscape.org/) -->

<svg
   width="320"
   height="180"
   viewBox="0 0 84.666665 47.625"
   version="1.1"
   id="svg202"
   inkscape:version="1.2.2 (b0a8486541, 2022-12-01)"
   sodipodi:docname="card_chinesonline.svg"
   xmlns:inkscape="http://www.inkscape.org/namespaces/inkscape"
   xmlns:sodipodi="http://sodipodi.sourceforge.net/DTD/sodipodi-0.dtd"
   xmlns:xlink="http://www.w3.org/1999/xlink"
   xmlns="http://www.w3.org/2000/svg"
   xmlns:svg="http://www.w3.org/2000/svg">
  <sodipodi:namedview
     id="namedview204"
     pagecolor="#ffffff"
     bordercolor="#cccccc"
     borderopacity="1"
     inkscape:showpageshadow="0"
     inkscape:pageopacity="1"
     inkscape:pagecheckerboard="0"
     inkscape:deskcolor="#d1d1d1"
     inkscape:document-units="mm"
     showgrid="false"
     inkscape:zoom="4.6551196"
     inkscape:cx="186.56878"
     inkscape:cy="106.01231"
     inkscape:window-width="3440"
     inkscape:window-height="1368"
     inkscape:window-x="1920"
     inkscape:window-y="0"
     inkscape:window-maximized="1"
     inkscape:current-layer="layer1" />
  <defs
     id="defs199">
    <linearGradient
       inkscape:collect="always"
       xlink:href="#linearGradient516"
       id="linearGradient518"
       x1="66.578949"
       y1="87.131577"
       x2="134.3158"
       y2="156.60527"
       gradientUnits="userSpaceOnUse"
       gradientTransform="matrix(1.2186869,0,0,0.66339805,-81.138894,-57.802919)" />
    <linearGradient
       inkscape:collect="always"
       id="linearGradient516">
      <stop
         style="stop-color:#560000;stop-opacity:1;"
         offset="0"
         id="stop512" />
      <stop
         style="stop-color:#c10000;stop-opacity:1;"
         offset="1"
         id="stop514" />
    </linearGradient>
    <linearGradient
       inkscape:collect="always"
       xlink:href="#linearGradient1383"
       id="linearGradient1385"
       x1="103.05264"
       y1="28.947365"
       x2="100.73684"
       y2="167.3158"
       gradientUnits="userSpaceOnUse"
       gradientTransform="matrix(1.2186847,0,0,0.81790357,-81.138678,-70.989687)" />
    <linearGradient
       inkscape:collect="always"
       id="linearGradient1383">
      <stop
         style="stop-color:#ffffff;stop-opacity:0.35732648;"
         offset="0"
         id="stop1379" />
      <stop
         style="stop-color:#ffffff;stop-opacity:0;"
         offset="1"
         id="stop1381" />
    </linearGradient>
  </defs>
  <g
     inkscape:label="Layer 1"
     inkscape:groupmode="layer"
     id="layer1">
    <rect
       style="fill:url(#linearGradient518);fill-opacity:1;stroke-width:0.356851;stroke-linecap:round;paint-order:stroke fill markers;stop-color:#000000"
       id="rect398"
       width="84.666664"
       height="47.625"
       x="4.7869378e-07"
       y="-1.5617357e-07"
       ry="0" />
    <path
       id="rect398-7"
       style="fill:url(#linearGradient1385);fill-opacity:1;stroke-width:0.396233;stroke-linecap:round;paint-order:stroke fill markers;stop-color:#000000"
       d="M 42.333336,24.188616 A 70.555435,25.333489 0 0 0 -5.860236e-7,29.273257 v 23.957822 c 0,3.191703 3.8287792860236,5.761334 8.5844402860236,5.761334 H 76.08223 c 4.755655,0 8.584437,-2.569631 8.584437,-5.761334 V 29.256777 A 70.555435,25.333489 0 0 0 42.333336,24.188616 Z" />
    <g
       aria-label="ChinêsOnline"
       id="text236"
       style="font-size:8.22172px;line-height:1.25;font-family:Alkatra;-inkscape-font-specification:Alkatra;stroke-width:0.685107">
      <path
         d="m 26.01225,23.903128 c -0.378199,0.509747 -0.961941,0.822172 -1.603235,0.822172 -0.789285,0 -0.986607,-0.52619 -0.986607,-1.282588 0,-1.677231 0.805729,-3.839543 1.710118,-3.839543 0.369977,0 0.501525,0.238429 0.501525,0.501524 0,0.312426 -0.180878,0.657738 -0.378199,0.756399 0.156212,0.180878 0.33709,0.213764 0.468638,0.213764 0.419307,0 0.57552,-0.320647 0.57552,-0.756398 0,-0.797507 -0.600185,-1.10171 -1.373027,-1.10171 -2.154091,0 -2.86938,2.787163 -2.86938,4.275294 0,1.47991 0.583742,2.022543 1.800556,2.022543 0.748177,0 1.907439,-0.427529 2.343191,-1.52924 z"
         style="font-family:'Lobster 1.4';-inkscape-font-specification:'Lobster 1.4, ';fill:#ffffff"
         id="path338" />
      <path
         d="m 28.355438,22.406775 c 0,0.52619 -0.369977,1.537462 -0.369977,2.096539 0,0.468638 0.254873,0.929054 0.970163,0.929054 0.435751,0 1.068823,-0.172656 1.529239,-1.521018 h -0.345312 c -0.180878,0.427529 -0.328869,0.723511 -0.690624,0.723511 -0.246652,0 -0.328869,-0.139769 -0.328869,-0.345312 0,-0.460416 0.394642,-1.455245 0.394642,-2.121204 0,-0.657737 -0.38642,-0.929054 -0.91261,-0.929054 -0.254874,0 -0.616629,0.06577 -0.961942,0.460416 l 0.443973,-2.071873 -1.216814,0.164434 -1.19215,5.59077 h 1.183928 l 0.567299,-2.672059 c 0.04933,-0.221987 0.304203,-0.723512 0.62485,-0.723512 0.205543,0 0.304204,0.147991 0.304204,0.419308 z"
         style="font-family:'Lobster 1.4';-inkscape-font-specification:'Lobster 1.4, ';fill:#ffffff"
         id="path340" />
      <path
         d="m 30.863056,20.178689 c 0,0.361756 0.28776,0.649516 0.649516,0.649516 0.361755,0 0.657737,-0.28776 0.657737,-0.649516 0,-0.361756 -0.295982,-0.657738 -0.657737,-0.657738 -0.361756,0 -0.649516,0.295982 -0.649516,0.657738 z m -0.164435,1.093489 -0.559077,2.639172 c -0.04111,0.197321 -0.06577,0.378199 -0.06577,0.534412 0,0.690624 0.386421,0.986606 0.879724,0.986606 0.443973,0 1.257923,-0.180878 1.726561,-1.521018 h -0.345312 c -0.123326,0.411086 -0.419308,0.723511 -0.739955,0.723511 -0.230208,0 -0.337091,-0.074 -0.337091,-0.304204 0,-0.074 0.0082,-0.156212 0.03289,-0.263095 l 0.591964,-2.795384 z"
         style="font-family:'Lobster 1.4';-inkscape-font-specification:'Lobster 1.4, ';fill:#ffffff"
         id="path342" />
      <path
         d="m 34.702601,22.406775 c 0,0.52619 -0.369978,1.537462 -0.369978,2.096539 0,0.468638 0.254874,0.929054 0.970163,0.929054 0.435751,0 1.068824,-0.172656 1.52924,-1.521018 h -0.345312 c -0.180878,0.427529 -0.328869,0.723511 -0.690625,0.723511 -0.246651,0 -0.328868,-0.139769 -0.328868,-0.345312 0,-0.460416 0.394642,-1.455245 0.394642,-2.121204 0,-0.657737 -0.386421,-0.929054 -0.912611,-0.929054 -0.254873,0 -0.616629,0.06577 -0.961941,0.460416 l 0.09044,-0.427529 h -1.183928 l -0.871502,4.11086 h 1.183928 l 0.559077,-2.639172 c 0.123325,-0.411086 0.345312,-0.756399 0.641294,-0.756399 0.197321,0 0.295982,0.147991 0.295982,0.419308 z"
         style="font-family:'Lobster 1.4';-inkscape-font-specification:'Lobster 1.4, ';fill:#ffffff"
         id="path344" />
      <path
         d="m 37.59664,24.051119 c 0,-0.09866 0.0082,-0.213765 0.01644,-0.328869 0.986607,-0.05755 1.890996,-0.789285 1.890996,-1.734783 0,-0.411086 -0.172656,-0.789285 -0.904389,-0.789285 -1.685453,0 -2.219865,1.981435 -2.219865,2.926932 0,0.929055 0.509747,1.307254 1.282589,1.307254 1.093488,0 1.792335,-0.76462 2.260973,-1.521018 h -0.279539 c -0.411086,0.468638 -0.805728,0.830393 -1.455244,0.830393 -0.394643,0 -0.591964,-0.131547 -0.591964,-0.690624 z m 1.274366,-2.080095 c 0,0.682403 -0.559077,1.315475 -1.192149,1.356584 0.164434,-0.813951 0.567299,-1.693675 0.986606,-1.693675 0.156213,0 0.205543,0.131548 0.205543,0.337091 z m 0.887946,-1.200371 -0.493303,-1.553905 h -0.172656 l -1.743005,1.553905 h 0.361756 l 1.29081,-0.657738 0.493303,0.657738 z"
         style="font-family:'Lobster 1.4';-inkscape-font-specification:'Lobster 1.4, ';fill:#ffffff"
         id="path346" />
      <path
         d="m 40.827782,21.181739 c -0.254874,0.805728 -0.550855,1.619679 -1.011272,2.433629 -0.221986,0.106882 -0.435751,0.386421 -0.435751,0.76462 0,0.501525 0.361756,1.05238 1.200371,1.05238 0.674181,0 1.644344,-0.353534 1.644344,-1.422358 0,-0.542633 -0.08222,-0.86328 -0.180878,-2.992706 z m -0.42753,2.729611 c 0,-0.13977 -0.08222,-0.23843 -0.189099,-0.28776 0.271317,-0.526191 0.501525,-1.019494 0.665959,-1.553905 0.08222,1.266144 0.156213,1.521018 0.156213,1.948547 0,0.57552 -0.353534,0.76462 -0.71529,0.76462 -0.361756,0 -0.501525,-0.1891 -0.501525,-0.57552 0.04111,0.08222 0.139769,0.106882 0.221987,0.106882 0.213764,0 0.361755,-0.205543 0.361755,-0.402864 z"
         style="font-family:'Lobster 1.4';-inkscape-font-specification:'Lobster 1.4, ';fill:#ffffff"
         id="path348" />
      <path
         d="m 45.785478,19.989589 c -0.147991,-0.04933 -0.28776,-0.06577 -0.42753,-0.06577 -1.479909,0 -2.228086,2.524068 -2.228086,3.855986 0,1.200371 0.608408,1.652566 1.471688,1.652566 2.154091,0 3.033815,-2.524068 3.033815,-4.11086 0,-1.225036 -0.509747,-2.10476 -1.948548,-2.10476 -1.734783,0 -3.313353,1.093488 -3.313353,2.244529 0,0.501525 0.312426,0.690625 0.830394,0.690625 0,-0.06577 -0.08222,-0.123326 -0.08222,-0.443973 0,-1.307254 1.109932,-2.112982 2.367855,-2.112982 0.863281,0 1.05238,0.485081 1.05238,1.438801 0,1.660787 -0.887946,3.732661 -1.718339,3.732661 -0.337091,0 -0.47686,-0.394643 -0.47686,-0.95372 0,-1.266145 0.690624,-3.370905 1.438801,-3.8231 z"
         style="font-family:'Lobster 1.4';-inkscape-font-specification:'Lobster 1.4, ';fill:#ffffff"
         id="path350" />
      <path
         d="m 50.077223,22.406775 c 0,0.52619 -0.369977,1.537462 -0.369977,2.096539 0,0.468638 0.254873,0.929054 0.970163,0.929054 0.435751,0 1.068823,-0.172656 1.529239,-1.521018 h -0.345312 c -0.180878,0.427529 -0.328869,0.723511 -0.690624,0.723511 -0.246652,0 -0.328869,-0.139769 -0.328869,-0.345312 0,-0.460416 0.394643,-1.455245 0.394643,-2.121204 0,-0.657737 -0.386421,-0.929054 -0.912611,-0.929054 -0.254874,0 -0.616629,0.06577 -0.961942,0.460416 l 0.09044,-0.427529 h -1.183927 l -0.871503,4.11086 h 1.183928 l 0.559077,-2.639172 c 0.123326,-0.411086 0.345312,-0.756399 0.641294,-0.756399 0.197321,0 0.295982,0.147991 0.295982,0.419308 z"
         style="font-family:'Lobster 1.4';-inkscape-font-specification:'Lobster 1.4, ';fill:#ffffff"
         id="path352" />
      <path
         d="M 52.741054,19.792268 51.86133,23.91135 c -0.04111,0.197321 -0.06577,0.378199 -0.06577,0.534412 0,0.690624 0.386421,0.986606 0.879724,0.986606 0.443973,0 1.257923,-0.180878 1.726561,-1.521018 h -0.345312 c -0.123326,0.411086 -0.419308,0.723511 -0.739955,0.723511 -0.230208,0 -0.33709,-0.074 -0.33709,-0.304204 0,-0.074 0.0082,-0.156212 0.03289,-0.263095 l 0.945498,-4.439728 z"
         style="font-family:'Lobster 1.4';-inkscape-font-specification:'Lobster 1.4, ';fill:#ffffff"
         id="path354" />
      <path
         d="m 54.780041,20.178689 c 0,0.361756 0.287761,0.649516 0.649516,0.649516 0.361756,0 0.657738,-0.28776 0.657738,-0.649516 0,-0.361756 -0.295982,-0.657738 -0.657738,-0.657738 -0.361755,0 -0.649516,0.295982 -0.649516,0.657738 z m -0.164434,1.093489 -0.559077,2.639172 c -0.04111,0.197321 -0.06577,0.378199 -0.06577,0.534412 0,0.690624 0.386421,0.986606 0.879724,0.986606 0.443973,0 1.257923,-0.180878 1.726561,-1.521018 h -0.345312 c -0.123326,0.411086 -0.419308,0.723511 -0.739955,0.723511 -0.230208,0 -0.33709,-0.074 -0.33709,-0.304204 0,-0.074 0.0082,-0.156212 0.03289,-0.263095 l 0.591964,-2.795384 z"
         style="font-family:'Lobster 1.4';-inkscape-font-specification:'Lobster 1.4, ';fill:#ffffff"
         id="path356" />
      <path
         d="m 58.619587,22.406775 c 0,0.52619 -0.369977,1.537462 -0.369977,2.096539 0,0.468638 0.254873,0.929054 0.970163,0.929054 0.435751,0 1.068823,-0.172656 1.52924,-1.521018 H 60.4037 c -0.180877,0.427529 -0.328868,0.723511 -0.690624,0.723511 -0.246652,0 -0.328869,-0.139769 -0.328869,-0.345312 0,-0.460416 0.394643,-1.455245 0.394643,-2.121204 0,-0.657737 -0.386421,-0.929054 -0.912611,-0.929054 -0.254874,0 -0.616629,0.06577 -0.961941,0.460416 l 0.09044,-0.427529 h -1.183927 l -0.871502,4.11086 h 1.183927 l 0.559077,-2.639172 c 0.123326,-0.411086 0.345312,-0.756399 0.641294,-0.756399 0.197322,0 0.295982,0.147991 0.295982,0.419308 z"
         style="font-family:'Lobster 1.4';-inkscape-font-specification:'Lobster 1.4, ';fill:#ffffff"
         id="path358" />
      <path
         d="m 61.505405,23.968902 c 0,-0.074 0.0082,-0.164435 0.01644,-0.246652 0.986606,-0.05755 1.890996,-0.781063 1.890996,-1.734783 0,-0.411086 -0.172657,-0.789285 -0.90439,-0.789285 -1.685452,0 -2.219864,1.981435 -2.219864,2.926932 0,0.929055 0.509747,1.307254 1.274367,1.307254 0.657737,0 1.249701,-0.279539 1.422357,-1.216815 -0.263095,0.230209 -0.657737,0.435752 -0.970163,0.435752 -0.28776,0 -0.509746,-0.164435 -0.509746,-0.682403 z m 1.274366,-1.997878 c 0,0.690624 -0.559077,1.323697 -1.200371,1.356584 0.172656,-0.781064 0.583742,-1.693675 0.994828,-1.693675 0.156213,0 0.205543,0.131548 0.205543,0.337091 z"
         style="font-family:'Lobster 1.4';-inkscape-font-specification:'Lobster 1.4, ';fill:#ffffff"
         id="path360" />
    </g>
  </g>
</svg>
