<?xml version="1.0" encoding="UTF-8" standalone="no"?>
<!-- Created with Inkscape (http://www.inkscape.org/) -->

<svg
   width="320"
   height="180"
   viewBox="0 0 84.666665 47.625"
   version="1.1"
   id="svg202"
   inkscape:version="1.2.2 (b0a8486541, 2022-12-01)"
   sodipodi:docname="card_cinemaratona.svg"
   xmlns:inkscape="http://www.inkscape.org/namespaces/inkscape"
   xmlns:sodipodi="http://sodipodi.sourceforge.net/DTD/sodipodi-0.dtd"
   xmlns:xlink="http://www.w3.org/1999/xlink"
   xmlns="http://www.w3.org/2000/svg"
   xmlns:svg="http://www.w3.org/2000/svg">
  <sodipodi:namedview
     id="namedview204"
     pagecolor="#ffffff"
     bordercolor="#cccccc"
     borderopacity="1"
     inkscape:showpageshadow="0"
     inkscape:pageopacity="1"
     inkscape:pagecheckerboard="0"
     inkscape:deskcolor="#d1d1d1"
     inkscape:document-units="mm"
     showgrid="false"
     inkscape:zoom="4.6551196"
     inkscape:cx="216.10615"
     inkscape:cy="105.7975"
     inkscape:window-width="3440"
     inkscape:window-height="1368"
     inkscape:window-x="1920"
     inkscape:window-y="0"
     inkscape:window-maximized="1"
     inkscape:current-layer="layer1" />
  <defs
     id="defs199">
    <linearGradient
       inkscape:collect="always"
       xlink:href="#linearGradient1383"
       id="linearGradient1385"
       x1="103.05264"
       y1="28.947365"
       x2="100.73684"
       y2="167.3158"
       gradientUnits="userSpaceOnUse"
       gradientTransform="matrix(1.2186847,0,0,0.6255636,-81.138673,-48.607351)" />
    <linearGradient
       inkscape:collect="always"
       id="linearGradient1383">
      <stop
         style="stop-color:#ffffff;stop-opacity:0.23943663;"
         offset="0"
         id="stop1379" />
      <stop
         style="stop-color:#ffffff;stop-opacity:0;"
         offset="1"
         id="stop1381" />
    </linearGradient>
    <linearGradient
       inkscape:collect="always"
       xlink:href="#linearGradient190370"
       id="linearGradient187608"
       gradientUnits="userSpaceOnUse"
       gradientTransform="matrix(0.38067129,0,0,0.38067129,197.16387,23.9599)"
       x1="-229.60646"
       y1="-5.6248026"
       x2="-229.60646"
       y2="68.238274" />
    <linearGradient
       inkscape:collect="always"
       id="linearGradient190370">
      <stop
         style="stop-color:#ffffff;stop-opacity:1;"
         offset="0"
         id="stop190366" />
      <stop
         style="stop-color:#e59501;stop-opacity:1"
         offset="1"
         id="stop190368" />
    </linearGradient>
  </defs>
  <g
     inkscape:label="Layer 1"
     inkscape:groupmode="layer"
     id="layer1">
    <rect
       style="fill:#002255;fill-opacity:1;stroke-width:0.356851;stroke-linecap:round;paint-order:stroke fill markers;stop-color:#000000"
       id="rect398"
       width="84.666664"
       height="47.625"
       x="1.8441895e-06"
       y="-2.3187499e-07"
       ry="0" />
    <path
       id="rect398-7"
       style="fill:url(#linearGradient1385);fill-opacity:1;stroke-width:0.346525;stroke-linecap:round;paint-order:stroke fill markers;stop-color:#000000"
       d="M 42.333333,24.188617 A 70.555432,19.37601 0 0 0 7.3722222e-7,28.077541 V 46.40139 C 7.3722222e-7,48.842526 3.8287796,50.807876 8.5844402,50.807876 H 76.082227 c 4.755653,0 8.584437,-1.96535 8.584437,-4.406486 V 28.064937 a 70.555432,19.37601 0 0 0 -42.333331,-3.87632 z" />
    <g
       id="g4363"
       transform="translate(18.063907,1.3618597)">
      <path
         id="circle723"
         style="fill:#ffcc00;stroke-width:0.215791;stroke-linecap:square;stroke-linejoin:round;paint-order:markers fill stroke;stop-color:#000000"
         d="m 17.330291,19.901443 a 2.5496512,2.5496512 0 0 0 -2.561804,2.12134 2.5496512,2.5496512 0 0 0 2.085756,2.941382 2.5496512,2.5496512 0 0 0 2.941219,-2.085759 2.5496512,2.5496512 0 0 0 -2.085756,-2.941219 2.5496512,2.5496512 0 0 0 -0.379415,-0.03575 z m -0.248145,0.6758 c 0.08806,9.53e-4 0.158611,0.01907 0.191367,0.05978 0.131023,0.162912 -0.0097,1.104831 -0.171598,1.148687 -0.161926,0.04385 -0.758894,-0.698359 -0.727991,-0.905127 0.02317,-0.155076 0.444029,-0.306186 0.708222,-0.30334 z m 1.06328,0.223789 c 0.236417,0.0019 0.836609,0.610961 0.777335,0.80944 -0.06219,0.208241 -1.0093,0.496668 -1.155009,0.35174 -0.145714,-0.144929 0.137669,-1.093602 0.345567,-1.15691 0.0098,-0.0029 0.02048,-0.0043 0.0321,-0.0043 z m -2.390047,0.646066 c 0.2346,-0.0059 0.911693,0.634551 0.86068,0.826996 -0.05266,0.19865 -1.015844,0.427692 -1.174622,0.279303 -0.158777,-0.148393 0.08116,-1.053349 0.29259,-1.103611 0.0066,-0.0014 0.01378,-0.0024 0.02135,-0.0029 z m 1.481599,0.748864 a 0.10369507,0.10369507 0 0 1 0.104222,0.07655 0.10369507,0.10369507 0 0 1 -0.07307,0.127159 0.10369507,0.10369507 0 0 1 -0.127157,-0.07291 0.10369507,0.10369507 0 0 1 0.07307,-0.127154 0.10369507,0.10369507 0 0 1 0.02293,-0.0038 z m 1.683725,0.104385 c 0.09377,4.77e-4 0.167074,0.01516 0.201809,0.04762 0.158777,0.148389 -0.08116,1.053344 -0.292589,1.103606 -0.211434,0.05026 -0.934689,-0.625809 -0.882034,-0.824464 0.04114,-0.155195 0.637935,-0.328937 0.972814,-0.326749 z m -1.394298,0.141392 a 0.10369507,0.10369507 0 0 1 0.104221,0.07655 0.10369507,0.10369507 0 0 1 -0.07307,0.127159 0.10369507,0.10369507 0 0 1 -0.127158,-0.07291 0.10369507,0.10369507 0 0 1 0.07291,-0.127317 0.10369507,0.10369507 0 0 1 0.02309,-0.0033 z m -0.415317,0.112449 a 0.10369507,0.10369507 0 0 1 0.104221,0.07654 0.10369507,0.10369507 0 0 1 -0.07291,0.127159 0.10369507,0.10369507 0 0 1 -0.127159,-0.07291 0.10369507,0.10369507 0 0 1 0.07291,-0.127159 0.10369507,0.10369507 0 0 1 0.02294,-0.0038 z m -0.470198,0.345729 c 0.07255,8.6e-5 0.127991,0.01187 0.155311,0.03909 0.14571,0.144924 -0.137674,1.093597 -0.345571,1.156909 -0.207901,0.06331 -0.87163,-0.596934 -0.809443,-0.805174 0.05053,-0.169195 0.685309,-0.391192 0.999703,-0.390801 z m 0.837592,0.213827 c 0.182196,0.0038 0.741478,0.706557 0.711542,0.906862 -0.0309,0.206768 -0.768565,0.406472 -0.899588,0.24356 -0.131024,-0.162912 0.0097,-1.104831 0.171598,-1.148687 0.0051,-0.0014 0.01061,-0.0019 0.01645,-0.0019 z" />
      <path
         id="path801"
         style="font-weight:600;font-size:19.6219px;line-height:1.25;font-family:'URW Gothic';-inkscape-font-specification:'URW Gothic, Semi-Bold';fill:#ffffff;stroke-width:0.424614"
         d="m 6.905471,23.303679 c -0.3108188,0.321009 -0.5706837,0.443297 -0.9324564,0.443297 -0.6980682,0 -1.2636565,-0.580875 -1.2636565,-1.284038 0,-0.305723 0.1171937,-0.631827 0.3108188,-0.856026 0.2292924,-0.270055 0.5553973,-0.412726 0.9375514,-0.412726 0.4382037,0 0.5531611,0.06606 0.8735943,0.315185 l 0.4567483,-0.454172 c -0.039773,-0.0557 -0.095539,-0.09927 -0.097258,-0.100496 -0.3464865,-0.280245 -0.7897853,-0.433108 -1.2483703,-0.433108 -1.0649367,0 -1.9362483,0.871311 -1.9362483,1.936248 0,1.090414 0.8815025,1.961724 1.9821067,1.961724 0.7744993,0 1.4419954,-0.428012 1.7375279,-1.115888 z m 34.438033,0.824877 h 0.66331 l 0.360208,-0.839019 h 1.1553 l 0.34703,0.839019 h 0.663307 l -1.36176,-3.246262 h -0.47442 z m 1.243157,-1.414475 0.347029,-0.98398 0.34703,0.98398 z m -4.199491,1.414475 h 0.601811 v -2.358922 l 1.357367,2.358922 h 0.672095 v -3.246262 h -0.601811 v 2.363315 l -1.34419,-2.363315 H 38.38717 Z m -2.143678,-3.303368 c -0.96641,0 -1.713181,0.733593 -1.713181,1.682433 0,0.940055 0.755556,1.678041 1.708789,1.678041 0.944447,0 1.673648,-0.733593 1.673648,-1.678041 0,-0.935662 -0.74238,-1.682433 -1.669256,-1.682433 z m -0.0088,0.579847 c 0.601811,0 1.07184,0.483205 1.07184,1.106979 0,0.628168 -0.45685,1.093801 -1.07184,1.093801 -0.614989,0 -1.098194,-0.483205 -1.098194,-1.098194 0,-0.628166 0.47442,-1.102586 1.098194,-1.102586 z m -2.956348,2.723521 h 0.60181 v -2.670809 h 0.601811 v -0.575453 h -1.80541 v 0.575453 h 0.601811 z m -3.672358,0 h 0.66331 l 0.360208,-0.839019 h 1.1553 l 0.34703,0.839019 h 0.663307 l -1.36176,-3.246262 h -0.47442 z m 1.243157,-1.414475 0.347029,-0.98398 0.34703,0.98398 z m -3.619646,1.414475 h 0.601811 v -1.243155 l 0.852198,1.243155 h 0.742379 l -0.878533,-1.199228 c 0.250387,-0.0615 0.373387,-0.118605 0.513954,-0.237211 0.224032,-0.188888 0.333853,-0.443669 0.333853,-0.768735 0,-0.33385 -0.118606,-0.610595 -0.342638,-0.799485 -0.210854,-0.180103 -0.443669,-0.241603 -0.887341,-0.241603 h -0.935661 z m 0.601833,-1.695611 v -0.975198 h 0.267959 c 0.281136,0 0.434884,0.03075 0.531526,0.114212 0.105427,0.08346 0.15814,0.210854 0.15814,0.368993 0,0.342639 -0.197676,0.491993 -0.663311,0.491993 z m -4.120424,1.695611 h 0.663308 l 0.360208,-0.839019 h 1.1553 l 0.34703,0.839019 h 0.66331 l -1.36176,-3.246262 h -0.47442 z m 1.243155,-1.414475 0.347029,-0.98398 0.34703,0.98398 z m -4.928694,1.414475 h 0.60181 v -2.433597 l 0.847807,2.433597 h 0.49199 l 0.847807,-2.433597 v 2.433597 h 0.601811 v -3.246262 h -0.825844 l -0.865376,2.459955 -0.874162,-2.459955 h -0.825843 z m -7.661526,0.0459 h 2.081719 v -0.575453 h -1.479908 v -0.755556 h 1.431588 v -0.575456 h -1.431588 v -0.764343 h 1.479908 v -0.575454 h -2.081719 z m -3.2506536,0 h 0.6018104 v -2.358919 l 1.3573682,2.358919 h 0.672095 V 20.928192 H 11.14265 v 2.363316 L 9.7984606,20.928192 H 9.1131874 Z M 8.4850072,20.937517 7.883153,21.548227 v 2.626287 h 0.6018542 z"
         sodipodi:nodetypes="csscscccsssccccccccccccccccccccccccccsssssssssscccccccccccccccccccccccccccccscsccccscssccccccccccccccccccccccccccccccccccccccccccccccccccccccccc" />
      <rect
         style="fill:#ffcc00;fill-opacity:1;stroke-width:1.12709;stroke-linecap:square;stroke-linejoin:round;paint-order:markers fill stroke;stop-color:#000000"
         id="rect855"
         width="12.6195"
         height="0.19315562"
         x="4.765626"
         y="24.801636" />
    </g>
  </g>
</svg>
