<?xml version="1.0" encoding="UTF-8" standalone="no"?>
<!-- Created with Inkscape (http://www.inkscape.org/) -->

<svg
   width="320"
   height="180"
   viewBox="0 0 84.666665 47.625"
   version="1.1"
   id="svg202"
   inkscape:version="1.2.2 (b0a8486541, 2022-12-01)"
   sodipodi:docname="card_boia.svg"
   xmlns:inkscape="http://www.inkscape.org/namespaces/inkscape"
   xmlns:sodipodi="http://sodipodi.sourceforge.net/DTD/sodipodi-0.dtd"
   xmlns:xlink="http://www.w3.org/1999/xlink"
   xmlns="http://www.w3.org/2000/svg"
   xmlns:svg="http://www.w3.org/2000/svg">
  <sodipodi:namedview
     id="namedview204"
     pagecolor="#ffffff"
     bordercolor="#cccccc"
     borderopacity="1"
     inkscape:showpageshadow="0"
     inkscape:pageopacity="1"
     inkscape:pagecheckerboard="0"
     inkscape:deskcolor="#d1d1d1"
     inkscape:document-units="mm"
     showgrid="false"
     inkscape:zoom="4.6551196"
     inkscape:cx="216.10615"
     inkscape:cy="105.7975"
     inkscape:window-width="3440"
     inkscape:window-height="1368"
     inkscape:window-x="1920"
     inkscape:window-y="0"
     inkscape:window-maximized="1"
     inkscape:current-layer="layer1" />
  <defs
     id="defs199">
    <linearGradient
       inkscape:collect="always"
       xlink:href="#linearGradient1383"
       id="linearGradient1385"
       x1="103.05264"
       y1="28.947365"
       x2="100.73684"
       y2="167.3158"
       gradientUnits="userSpaceOnUse"
       gradientTransform="matrix(1.2186847,0,0,0.55076469,-81.138673,-39.903106)" />
    <linearGradient
       inkscape:collect="always"
       id="linearGradient1383">
      <stop
         style="stop-color:#ffffff;stop-opacity:0.74178404;"
         offset="0"
         id="stop1379" />
      <stop
         style="stop-color:#ffffff;stop-opacity:0;"
         offset="1"
         id="stop1381" />
    </linearGradient>
  </defs>
  <g
     inkscape:label="Layer 1"
     inkscape:groupmode="layer"
     id="layer1">
    <rect
       style="fill:#cccccc;fill-opacity:1;stroke-width:0.356851;stroke-linecap:round;paint-order:stroke fill markers;stop-color:#000000"
       id="rect398"
       width="84.666664"
       height="47.625"
       x="1.8441895e-06"
       y="-2.3187499e-07"
       ry="0" />
    <path
       id="rect398-7"
       style="fill:url(#linearGradient1385);fill-opacity:1;stroke-width:0.325149;stroke-linecap:round;paint-order:stroke fill markers;stop-color:#000000"
       d="M 42.333333,24.188617 A 70.555432,17.059213 0 0 0 7.3722222e-7,27.612541 V 43.7454 C 7.3722222e-7,45.894648 3.8287796,47.625 8.5844402,47.625 H 76.082227 c 4.755653,0 8.584437,-1.730352 8.584437,-3.8796 V 27.601444 A 70.555432,17.059213 0 0 0 42.333333,24.188617 Z" />
    <g
       id="g1376"
       transform="matrix(0.27421999,0,0,0.27421999,13.65297,-8.8275696)">
      <path
         d="m 55.188302,98.320141 c 4.733582,0 8.534513,1.46054 11.402816,4.381629 2.868303,2.90349 4.302456,6.70443 4.302456,11.40281 0,3.20264 -0.43993,6.22931 -1.319774,9.08001 -0.879853,2.85071 -2.155628,5.41106 -3.827337,7.68107 -2.058847,2.79791 -4.496018,4.89194 -7.311523,6.28209 -2.815506,1.37256 -6.053338,2.05885 -9.713508,2.05885 -4.715971,0 -8.508108,-1.45174 -11.376408,-4.35525 -2.850701,-2.90349 -4.276052,-6.71323 -4.276052,-11.42919 0,-3.22025 0.431124,-6.25572 1.293373,-9.10642 0.879848,-2.85069 2.164423,-5.41985 3.853727,-7.70745 2.023645,-2.78032 4.443228,-4.85675 7.258734,-6.22931 2.815505,-1.372559 6.053338,-2.058839 9.713496,-2.058839 z"
         style="font-style:oblique;font-weight:bold;font-stretch:semi-condensed;font-size:50.3436px;line-height:1.25;font-family:'DejaVu Sans';-inkscape-font-specification:'DejaVu Sans, Bold Oblique Semi-Condensed';fill:#333333;stroke-width:4.5048"
         id="path1315"
         sodipodi:nodetypes="scssccscsccss" />
      <path
         id="path1243"
         style="fill:#ffffff;stroke-width:0.111175;stroke-linecap:round;paint-order:stroke fill markers;stop-color:#000000"
         d="m 47.35711,105.02003 c -0.10329,0 -0.18651,0.0858 -0.18651,0.19252 v 2.96315 c 0,0.10662 0.08322,0.19253 0.18651,0.19253 h 1.249147 c 0.10329,0 0.186088,-0.0858 0.186088,-0.19253 v -2.96315 c 0,-0.10662 -0.0828,-0.19252 -0.186088,-0.19252 z m 3.529783,0 c -0.10329,0 -0.186511,0.0858 -0.186511,0.19252 v 2.96315 c 0,0.10662 0.08322,0.19253 0.186511,0.19253 h 1.248727 c 0.10329,0 0.186508,-0.0858 0.186508,-0.19253 v -2.96315 c 0,-0.10662 -0.08322,-0.19252 -0.186508,-0.19252 z m 3.52936,0 c -0.103289,0 -0.186509,0.0858 -0.186509,0.19252 v 2.96315 c 0,0.10662 0.08322,0.19253 0.186509,0.19253 h 1.248726 c 0.10329,0 0.186511,-0.0858 0.186511,-0.19253 v -2.96315 c 0,-0.10662 -0.08322,-0.19252 -0.186511,-0.19252 z m 3.529361,0 c -0.10329,0 -0.186088,0.0858 -0.186088,0.19252 v 2.96315 c 0,0.10662 0.08281,0.19253 0.186088,0.19253 h 1.249149 c 0.10329,0 0.186087,-0.0858 0.186087,-0.19253 v -2.96315 c 0,-0.10662 -0.08281,-0.19252 -0.186087,-0.19252 z m -11.503792,4.92364 c -1.181481,0 -2.132856,0.98165 -2.132856,2.20127 v 13.81437 c 0,1.21963 0.951375,2.20173 2.132856,2.20173 h 3.265809 v -6.82376 l -1.409135,-1.34379 c -0.193177,0.0712 -0.397213,0.10786 -0.602892,0.10821 -0.974634,9e-5 -1.764798,-0.7969 -1.764892,-1.78014 -1.35e-4,-0.9834 0.790095,-1.78065 1.764892,-1.78057 0.97463,1.6e-4 1.764604,0.79734 1.764469,1.78057 -3.48e-4,0.29237 -0.07207,0.58016 -0.208821,0.83792 l 1.29883,1.23821 c 0.18164,0.0468 0.325217,0.19065 0.376806,0.37549 0.01724,0.0345 0.02388,0.0734 0.01937,0.11125 10e-4,0.0134 0.0012,0.0268 0.0012,0.0405 v 7.23619 h 1.08832 v -11.70785 c 0,-0.0694 0.0074,-0.13626 0.02021,-0.20032 -0.698748,-0.25476 -1.164494,-0.92373 -1.164945,-1.67327 1.04e-4,-0.98322 0.790264,-1.78019 1.764889,-1.78012 0.974461,1.6e-4 1.764366,0.79708 1.764471,1.78012 -4.51e-4,0.74954 -0.466198,1.41851 -1.164947,1.67327 0.01279,0.064 0.02063,0.13099 0.02063,0.20032 v 11.70785 h 1.175198 c -1.159569,-2.34634 -0.813777,-11.57292 7.505312,-14.03346 v -1.98257 c 0,-1.21963 -0.950949,-2.20129 -2.132437,-2.20129 z m -7.404374,3.00358 c -0.119115,0.005 -0.213453,0.10751 -0.213453,0.23206 v 1.20951 c 0,0.12856 0.100272,0.23207 0.224821,0.23207 h 3.461578 c 0.124548,0 0.224821,-0.10349 0.224821,-0.23207 v -1.20951 c 0,-0.12858 -0.100272,-0.23206 -0.224821,-0.23206 h -3.461578 c -0.0038,0 -0.0074,-2.2e-4 -0.01137,0 z m 13.618544,0.82313 c -0.442968,7e-5 -0.802027,0.36236 -0.802031,0.80923 -2e-6,0.44688 0.359059,0.80917 0.802031,0.80924 0.442972,-7e-5 0.802035,-0.36236 0.802033,-0.80924 -3e-6,-0.44687 -0.359065,-0.80916 -0.802033,-0.80923 z m -13.618544,2.82014 c -0.119115,0.005 -0.213453,0.10755 -0.213453,0.23209 v 1.20995 c 0,0.12854 0.100272,0.23208 0.224821,0.23208 h 3.461578 c 0.124548,0 0.224821,-0.1035 0.224821,-0.23208 v -1.20995 c 0,-0.12857 -0.100272,-0.23209 -0.224821,-0.23209 h -3.461578 c -0.0038,0 -0.0074,-1.9e-4 -0.01137,0 z m 8.658156,0.9218 c -0.442968,9e-5 -0.802029,0.36237 -0.802032,0.80924 -8e-6,0.44689 0.359054,0.80918 0.802032,0.80925 0.442976,-7e-5 0.802039,-0.36236 0.80203,-0.80925 -3e-6,-0.44687 -0.359063,-0.80915 -0.80203,-0.80924 z m -8.646788,2.72151 c -0.124549,0 -0.224821,0.1035 -0.224821,0.23209 v 1.20993 c 0,0.12857 0.100272,0.23208 0.224821,0.23208 h 3.461578 c 0.124548,0 0.224821,-0.1035 0.224821,-0.23208 v -1.20993 c 0,-0.12858 -0.100272,-0.23209 -0.224821,-0.23209 z m 0,3.64329 c -0.124549,0 -0.224821,0.1035 -0.224821,0.23208 v 1.20994 c 0,0.12858 0.100272,0.23207 0.224821,0.23207 h 3.461578 c 0.124548,0 0.224821,-0.10349 0.224821,-0.23207 v -1.20994 c 0,-0.12857 -0.100272,-0.23208 -0.224821,-0.23208 z m 8.308294,6.15445 c -0.10329,0 -0.18651,0.0858 -0.18651,0.19254 v 2.96312 c 0,0.10663 0.08322,0.19255 0.18651,0.19255 h 1.249147 c 0.10329,0 0.186088,-0.0858 0.186088,-0.19255 v -2.96312 c 0,-0.10663 -0.0828,-0.19254 -0.186088,-0.19254 z m 3.529783,0 c -0.10329,0 -0.186511,0.0858 -0.186511,0.19254 v 2.96312 c 0,0.10663 0.08322,0.19255 0.186511,0.19255 h 1.248727 c 0.10329,0 0.186508,-0.0858 0.186508,-0.19255 v -2.96312 c 0,-0.10663 -0.08322,-0.19254 -0.186508,-0.19254 z"
         sodipodi:nodetypes="sssssssssssssssssssssssssssssssssssscsssccccsccccccsccscccccscccsccssssssssssscscscssssssssssscscscssssssssssssssssssssssssssssssssssss" />
      <path
         style="fill:#00aa44;stroke-width:0.167042;stroke-linecap:round;paint-order:stroke fill markers;stop-color:#000000"
         d="m 72.784254,110.03301 c -1.16449,1.84466 -2.22589,1.70998 -3.436839,2.39469 -9.069122,2.63632 -16.212852,5.74884 -13.082027,18.73871 0.776652,-6.70891 7.621078,-5.74107 12.189116,-13.59382 -3.891864,9.38169 -9.321425,8.5491 -10.676354,14.56145 -1.930627,2.90774 -3.2737,6.4132 -3.2737,6.4132 0.774212,-0.18904 1.548425,-0.38885 2.322637,-0.71131 0,0 0.09025,-0.80583 1.45661,-3.56941 3.453972,0.47112 9.361617,0.0509 11.584696,-3.00832 4.136161,-5.69206 3.388831,-6.52738 2.915861,-21.22519 z"
         id="path1245"
         sodipodi:nodetypes="ccccccccsc" />
      <text
         xml:space="preserve"
         style="font-size:52.1583px;line-height:1.25;font-family:Alkatra;-inkscape-font-specification:Alkatra;letter-spacing:-3.37079px;fill:#333333;stroke-width:4.34651"
         x="75.639465"
         y="138.99884"
         id="text1356"><tspan
           id="tspan1354"
           style="font-style:oblique;font-variant:normal;font-weight:bold;font-stretch:semi-condensed;font-size:52.1583px;font-family:'DejaVu Sans';-inkscape-font-specification:'DejaVu Sans, Bold Oblique Semi-Condensed';font-variant-ligatures:normal;font-variant-caps:normal;font-variant-numeric:normal;font-variant-east-asian:normal;fill:#333333;stroke-width:4.34651"
           x="75.639465"
           y="138.99884"
           sodipodi:role="line">boia</tspan></text>
    </g>
  </g>
</svg>
