<?xml version="1.0" encoding="UTF-8" standalone="no"?>
<!-- Created with Inkscape (http://www.inkscape.org/) -->

<svg
   width="320"
   height="180"
   viewBox="0 0 84.666665 47.625"
   version="1.1"
   id="svg202"
   inkscape:version="1.2.2 (b0a8486541, 2022-12-01)"
   sodipodi:docname="card_boia.svg"
   xmlns:inkscape="http://www.inkscape.org/namespaces/inkscape"
   xmlns:sodipodi="http://sodipodi.sourceforge.net/DTD/sodipodi-0.dtd"
   xmlns:xlink="http://www.w3.org/1999/xlink"
   xmlns="http://www.w3.org/2000/svg"
   xmlns:svg="http://www.w3.org/2000/svg">
  <sodipodi:namedview
     id="namedview204"
     pagecolor="#ffffff"
     bordercolor="#cccccc"
     borderopacity="1"
     inkscape:showpageshadow="0"
     inkscape:pageopacity="1"
     inkscape:pagecheckerboard="0"
     inkscape:deskcolor="#d1d1d1"
     inkscape:document-units="mm"
     showgrid="false"
     inkscape:zoom="4.6551196"
     inkscape:cx="187.21324"
     inkscape:cy="106.01231"
     inkscape:window-width="3440"
     inkscape:window-height="1368"
     inkscape:window-x="1920"
     inkscape:window-y="0"
     inkscape:window-maximized="1"
     inkscape:current-layer="layer1" />
  <defs
     id="defs199">
    <linearGradient
       inkscape:collect="always"
       xlink:href="#linearGradient1383"
       id="linearGradient1385"
       x1="103.05264"
       y1="28.947365"
       x2="100.73684"
       y2="167.3158"
       gradientUnits="userSpaceOnUse"
       gradientTransform="matrix(1.2186847,0,0,0.55076469,-81.138673,-39.903106)" />
    <linearGradient
       inkscape:collect="always"
       id="linearGradient1383">
      <stop
         style="stop-color:#ffffff;stop-opacity:0.74178404;"
         offset="0"
         id="stop1379" />
      <stop
         style="stop-color:#ffffff;stop-opacity:0;"
         offset="1"
         id="stop1381" />
    </linearGradient>
  </defs>
  <g
     inkscape:label="Layer 1"
     inkscape:groupmode="layer"
     id="layer1">
    <rect
       style="fill:#cccccc;fill-opacity:1;stroke-width:0.356851;stroke-linecap:round;paint-order:stroke fill markers;stop-color:#000000"
       id="rect398"
       width="84.666664"
       height="47.625"
       x="1.8441895e-06"
       y="-2.3187499e-07"
       ry="0" />
    <path
       id="rect398-7"
       style="fill:url(#linearGradient1385);fill-opacity:1;stroke-width:0.325149;stroke-linecap:round;paint-order:stroke fill markers;stop-color:#000000"
       d="M 42.333333,24.188617 A 70.555432,17.059213 0 0 0 7.3722222e-7,27.612541 V 43.7454 C 7.3722222e-7,45.894648 3.8287796,47.625 8.5844402,47.625 H 76.082227 c 4.755653,0 8.584437,-1.730352 8.584437,-3.8796 V 27.601444 A 70.555432,17.059213 0 0 0 42.333333,24.188617 Z" />
    <g
       id="g2820">
      <path
         d="m 28.786706,18.133778 c 1.298042,0 2.340334,0.40051 3.12688,1.201531 0.786546,0.796195 1.179819,1.838488 1.179819,3.126878 0,0.878228 -0.120637,1.708202 -0.361908,2.48992 -0.241274,0.781722 -0.591117,1.483821 -1.049533,2.106303 -0.564577,0.767243 -1.232898,1.341468 -2.004965,1.722675 -0.772068,0.376383 -1.659947,0.564578 -2.663638,0.564578 -1.293214,0 -2.333094,-0.398096 -3.119639,-1.194297 -0.781719,-0.796195 -1.172579,-1.840902 -1.172579,-3.134112 0,-0.883057 0.118223,-1.715444 0.354669,-2.497163 0.241272,-0.781716 0.593528,-1.486231 1.056769,-2.113536 0.554924,-0.76242 1.218422,-1.331818 1.99049,-1.708202 0.772068,-0.376383 1.659946,-0.564575 2.663635,-0.564575 z"
         style="font-style:oblique;font-weight:bold;font-stretch:semi-condensed;font-size:50.3436px;line-height:1.25;font-family:'DejaVu Sans';-inkscape-font-specification:'DejaVu Sans, Bold Oblique Semi-Condensed';fill:#333333;stroke-width:1.23531"
         id="path1315"
         sodipodi:nodetypes="scssccscsccss" />
      <path
         id="path1243"
         style="fill:#ffffff;stroke-width:0.0304864;stroke-linecap:round;paint-order:stroke fill markers;stop-color:#000000"
         d="m 26.639236,19.971022 c -0.02832,0 -0.05115,0.02353 -0.05115,0.05279 v 0.812555 c 0,0.02924 0.02282,0.05279 0.05115,0.05279 h 0.342541 c 0.02832,0 0.05103,-0.02353 0.05103,-0.05279 v -0.812555 c 0,-0.02924 -0.02271,-0.05279 -0.05103,-0.05279 z m 0.967937,0 c -0.02832,0 -0.05114,0.02353 -0.05114,0.05279 v 0.812555 c 0,0.02924 0.02282,0.05279 0.05114,0.05279 h 0.342426 c 0.02832,0 0.05114,-0.02353 0.05114,-0.05279 v -0.812555 c 0,-0.02924 -0.02282,-0.05279 -0.05114,-0.05279 z m 0.967821,0 c -0.02832,0 -0.05114,0.02353 -0.05114,0.05279 v 0.812555 c 0,0.02924 0.02282,0.05279 0.05114,0.05279 h 0.342426 c 0.02832,0 0.05115,-0.02353 0.05115,-0.05279 v -0.812555 c 0,-0.02924 -0.02282,-0.05279 -0.05115,-0.05279 z m 0.967822,0 c -0.02832,0 -0.05103,0.02353 -0.05103,0.05279 v 0.812555 c 0,0.02924 0.02271,0.05279 0.05103,0.05279 h 0.342541 c 0.02833,0 0.05103,-0.02353 0.05103,-0.05279 v -0.812555 c 0,-0.02924 -0.02271,-0.05279 -0.05103,-0.05279 z m -3.15457,1.35016 c -0.323986,0 -0.584872,0.269189 -0.584872,0.603633 v 3.788176 c 0,0.334447 0.260886,0.603759 0.584872,0.603759 h 0.89555 v -1.871212 l -0.386413,-0.368494 c -0.05297,0.01952 -0.108924,0.02958 -0.165325,0.02967 -0.267264,2.5e-5 -0.483943,-0.218526 -0.483969,-0.48815 -3.7e-5,-0.269668 0.21666,-0.488289 0.483969,-0.488267 0.267263,4.3e-5 0.48389,0.218646 0.483853,0.488267 -9.6e-5,0.08017 -0.01976,0.159092 -0.05726,0.229775 l 0.356165,0.339542 c 0.04981,0.01283 0.08918,0.05228 0.103328,0.102967 0.0047,0.0095 0.0065,0.02013 0.0053,0.03051 2.75e-4,0.0037 3.29e-4,0.0073 3.29e-4,0.01111 v 1.984308 h 0.29844 V 23.10625 c 0,-0.01903 0.002,-0.03737 0.0055,-0.05493 -0.191611,-0.06986 -0.319328,-0.253305 -0.319452,-0.458844 2.9e-5,-0.269618 0.216706,-0.488164 0.483968,-0.488144 0.267217,4.3e-5 0.483825,0.218575 0.483853,0.488144 -1.23e-4,0.205539 -0.12784,0.388984 -0.319451,0.458844 0.0035,0.01755 0.0057,0.03592 0.0057,0.05493 v 3.210526 h 0.322263 C 28.266617,25.673363 28.36144,23.14325 30.6427,22.468521 v -0.54366 c 0,-0.334447 -0.260769,-0.603638 -0.584757,-0.603638 z m -2.030427,0.823642 c -0.03266,0.0014 -0.05853,0.02948 -0.05853,0.06364 v 0.331671 c 0,0.03525 0.0275,0.06364 0.06165,0.06364 h 0.949234 c 0.03415,0 0.06165,-0.02838 0.06165,-0.06364 V 22.20846 c 0,-0.03526 -0.0275,-0.06364 -0.06165,-0.06364 h -0.949234 c -10e-4,0 -0.002,-6e-5 -0.0031,0 z m 3.734477,0.225719 c -0.121471,1.9e-5 -0.219932,0.09937 -0.219933,0.221907 -1e-6,0.122543 0.09846,0.22189 0.219933,0.22191 0.121471,-2e-5 0.219934,-0.09937 0.219933,-0.22191 -10e-7,-0.122541 -0.09846,-0.221888 -0.219933,-0.221907 z m -3.734477,0.773339 c -0.03266,0.0014 -0.05853,0.02949 -0.05853,0.06364 v 0.331793 c 0,0.03525 0.0275,0.06364 0.06165,0.06364 h 0.949234 c 0.03415,0 0.06165,-0.02838 0.06165,-0.06364 v -0.331793 c 0,-0.03526 -0.0275,-0.06364 -0.06165,-0.06364 h -0.949234 c -10e-4,0 -0.002,-5.2e-5 -0.0031,0 z m 2.374239,0.252776 c -0.121471,2.4e-5 -0.219932,0.09937 -0.219933,0.221909 -2e-6,0.122547 0.09846,0.221894 0.219933,0.221913 0.121473,-1.9e-5 0.219935,-0.09937 0.219933,-0.221913 -1e-6,-0.12254 -0.09846,-0.221885 -0.219933,-0.221909 z m -2.371122,0.746292 c -0.03415,0 -0.06165,0.02838 -0.06165,0.06364 v 0.331787 c 0,0.03526 0.0275,0.06364 0.06165,0.06364 h 0.949234 c 0.03415,0 0.06165,-0.02838 0.06165,-0.06364 V 24.20659 c 0,-0.03526 -0.0275,-0.06364 -0.06165,-0.06364 z m 0,0.999063 c -0.03415,0 -0.06165,0.02838 -0.06165,0.06364 v 0.33179 c 0,0.03526 0.0275,0.06364 0.06165,0.06364 h 0.949234 c 0.03415,0 0.06165,-0.02838 0.06165,-0.06364 v -0.33179 c 0,-0.03526 -0.0275,-0.06364 -0.06165,-0.06364 z m 2.2783,1.687673 c -0.02832,0 -0.05115,0.02353 -0.05115,0.0528 v 0.812546 c 0,0.02924 0.02282,0.0528 0.05115,0.0528 h 0.342541 c 0.02832,0 0.05103,-0.02353 0.05103,-0.0528 v -0.812546 c 0,-0.02924 -0.02271,-0.0528 -0.05103,-0.0528 z m 0.967937,0 c -0.02832,0 -0.05114,0.02353 -0.05114,0.0528 v 0.812546 c 0,0.02924 0.02282,0.0528 0.05114,0.0528 h 0.342426 c 0.02832,0 0.05114,-0.02353 0.05114,-0.0528 v -0.812546 c 0,-0.02924 -0.02282,-0.0528 -0.05114,-0.0528 z"
         sodipodi:nodetypes="sssssssssssssssssssssssssssssssssssscsssccccsccccccsccscccccscccsccssssssssssscscscssssssssssscscscssssssssssssssssssssssssssssssssssss" />
      <path
         style="fill:#00aa44;stroke-width:0.0458063;stroke-linecap:round;paint-order:stroke fill markers;stop-color:#000000"
         d="m 33.611867,21.345681 c -0.319326,0.505843 -0.610383,0.468911 -0.94245,0.656672 -2.486934,0.722932 -4.445888,1.576447 -3.587353,5.138529 0.212974,-1.839717 2.089852,-1.574316 3.342499,-3.727697 -1.067227,2.572647 -2.556121,2.344334 -2.927669,3.993041 -0.529417,0.79736 -0.897714,1.758627 -0.897714,1.758627 0.212304,-0.05184 0.424609,-0.10663 0.636913,-0.195055 0,0 0.02475,-0.220975 0.399432,-0.978804 0.947148,0.129191 2.567142,0.01396 3.176755,-0.824941 1.134218,-1.560877 0.929285,-1.789938 0.799587,-5.820372 z"
         id="path1245"
         sodipodi:nodetypes="ccccccccsc" />
      <g
         aria-label="boia"
         id="text1356"
         style="font-size:14.3028px;line-height:1.25;font-family:Alkatra;-inkscape-font-specification:Alkatra;letter-spacing:-0.924338px;fill:#333333;stroke-width:1.1919">
        <path
           d="m 39.618699,23.09407 q -0.86599,0 -1.417709,0.893925 -0.551719,0.886941 -0.551719,2.311634 0,0.642508 0.307286,1.012649 0.314271,0.363157 0.86599,0.363157 0.852023,0 1.403742,-0.872973 0.551719,-0.879958 0.551719,-2.24878 0,-0.712347 -0.300303,-1.082488 -0.293319,-0.377124 -0.859006,-0.377124 z m -2.36052,5.063247 -0.209514,1.131374 h -2.255764 l 1.892607,-10.866776 h 2.262748 l -0.733298,4.190273 q 0.5168,-0.684411 1.082487,-1.005665 0.565687,-0.328239 1.236131,-0.328239 1.187244,0 1.878639,0.838055 0.691395,0.838055 0.691395,2.283699 0,0.900909 -0.244433,1.752931 -0.237448,0.852023 -0.691395,1.550401 -0.57267,0.879958 -1.292001,1.333904 -0.71933,0.453946 -1.543417,0.453946 -0.71933,0 -1.229147,-0.321254 -0.502833,-0.328238 -0.845038,-1.012649 z"
           style="font-style:oblique;font-weight:bold;font-stretch:semi-condensed;font-family:'DejaVu Sans';-inkscape-font-specification:'DejaVu Sans, Bold Oblique Semi-Condensed'"
           id="path2803" />
        <path
           d="m 47.507902,23.066134 q -0.872973,0 -1.43866,0.879958 -0.565687,0.879957 -0.565687,2.241796 0,0.740282 0.300303,1.131374 0.307287,0.384108 0.893925,0.384108 0.872974,0 1.43866,-0.879957 0.565687,-0.886941 0.565687,-2.255764 0,-0.733298 -0.307286,-1.117406 -0.300303,-0.384109 -0.886942,-0.384109 z m 0.181579,-1.78785 q 1.571352,0 2.472261,0.886942 0.900909,0.886941 0.900909,2.416391 0,0.886941 -0.286335,1.724996 -0.279352,0.831071 -0.824087,1.522466 -0.635525,0.824087 -1.515483,1.243114 -0.872973,0.419027 -1.948477,0.419027 -1.550401,0 -2.444326,-0.886941 -0.893925,-0.886941 -0.893925,-2.416391 0,-0.879957 0.286335,-1.718012 0.286336,-0.845038 0.831071,-1.543417 0.628541,-0.81012 1.494531,-1.229147 0.872974,-0.419028 1.927526,-0.419028 z"
           style="font-style:oblique;font-weight:bold;font-stretch:semi-condensed;font-family:'DejaVu Sans';-inkscape-font-specification:'DejaVu Sans, Bold Oblique Semi-Condensed'"
           id="path2805" />
        <path
           d="m 52.366142,21.466847 h 2.262748 l -1.375807,7.821844 h -2.255764 z m 0.523784,-3.044932 h 2.262748 L 54.7965,20.461181 h -2.269731 z"
           style="font-style:oblique;font-weight:bold;font-stretch:semi-condensed;font-family:'DejaVu Sans';-inkscape-font-specification:'DejaVu Sans, Bold Oblique Semi-Condensed'"
           id="path2807" />
        <path
           d="m 58.320836,25.768861 q -0.845038,0 -1.278033,0.293319 -0.426011,0.286335 -0.426011,0.852022 0,0.426011 0.251416,0.670444 0.258401,0.244433 0.705363,0.244433 0.684411,0 1.152325,-0.46093 0.467914,-0.467914 0.621558,-1.312953 l 0.04889,-0.286335 z m 3.512846,-0.942812 -0.789168,4.462642 h -2.24878 l 0.188562,-1.159309 q -0.551719,0.698378 -1.173276,1.0336 -0.614574,0.328238 -1.333904,0.328238 -0.998682,0 -1.58532,-0.57267 -0.586638,-0.579655 -0.586638,-1.557385 0,-1.494531 1.033601,-2.283699 1.040584,-0.796152 3.003029,-0.796152 h 1.32692 l 0.02793,-0.195546 q 0.01397,-0.09777 0.01397,-0.139676 0.007,-0.0419 0.007,-0.07682 0,-0.46093 -0.391092,-0.691395 -0.391092,-0.237449 -1.166293,-0.237449 -0.698379,0 -1.354855,0.160627 -0.649492,0.160628 -1.257082,0.481882 l 0.335222,-1.906575 q 0.705363,-0.195546 1.445644,-0.293319 0.740282,-0.104757 1.52945,-0.104757 1.564369,0 2.325602,0.600606 0.761233,0.593622 0.761233,1.815785 0,0.237449 -0.02793,0.523785 -0.02793,0.279351 -0.08381,0.607589 z"
           style="font-style:oblique;font-weight:bold;font-stretch:semi-condensed;font-family:'DejaVu Sans';-inkscape-font-specification:'DejaVu Sans, Bold Oblique Semi-Condensed'"
           id="path2809" />
      </g>
    </g>
  </g>
</svg>
