<?xml version="1.0" encoding="UTF-8" standalone="no"?>
<!-- Created with Inkscape (http://www.inkscape.org/) -->

<svg
   width="320"
   height="180"
   viewBox="0 0 84.666665 47.625"
   version="1.1"
   id="svg202"
   inkscape:version="1.2.2 (b0a8486541, 2022-12-01)"
   sodipodi:docname="card_racadegatos.svg"
   xmlns:inkscape="http://www.inkscape.org/namespaces/inkscape"
   xmlns:sodipodi="http://sodipodi.sourceforge.net/DTD/sodipodi-0.dtd"
   xmlns:xlink="http://www.w3.org/1999/xlink"
   xmlns="http://www.w3.org/2000/svg"
   xmlns:svg="http://www.w3.org/2000/svg">
  <sodipodi:namedview
     id="namedview204"
     pagecolor="#ffffff"
     bordercolor="#cccccc"
     borderopacity="1"
     inkscape:showpageshadow="0"
     inkscape:pageopacity="1"
     inkscape:pagecheckerboard="0"
     inkscape:deskcolor="#d1d1d1"
     inkscape:document-units="mm"
     showgrid="false"
     inkscape:zoom="4.6551196"
     inkscape:cx="186.56878"
     inkscape:cy="106.01231"
     inkscape:window-width="3440"
     inkscape:window-height="1368"
     inkscape:window-x="1920"
     inkscape:window-y="0"
     inkscape:window-maximized="1"
     inkscape:current-layer="layer1" />
  <defs
     id="defs199">
    <linearGradient
       inkscape:collect="always"
       xlink:href="#linearGradient1383"
       id="linearGradient1385"
       x1="103.05264"
       y1="28.947365"
       x2="100.73684"
       y2="167.3158"
       gradientUnits="userSpaceOnUse"
       gradientTransform="matrix(1.2186847,0,0,0.55076469,-81.138673,-39.903106)" />
    <linearGradient
       inkscape:collect="always"
       id="linearGradient1383">
      <stop
         style="stop-color:#ffffff;stop-opacity:0.74178404;"
         offset="0"
         id="stop1379" />
      <stop
         style="stop-color:#ffffff;stop-opacity:0;"
         offset="1"
         id="stop1381" />
    </linearGradient>
    <linearGradient
       inkscape:collect="always"
       xlink:href="#linearGradient190370"
       id="linearGradient187608"
       gradientUnits="userSpaceOnUse"
       gradientTransform="matrix(0.38067129,0,0,0.38067129,197.16387,23.9599)"
       x1="-229.60646"
       y1="-5.6248026"
       x2="-229.60646"
       y2="68.238274" />
    <linearGradient
       inkscape:collect="always"
       id="linearGradient190370">
      <stop
         style="stop-color:#ffffff;stop-opacity:1;"
         offset="0"
         id="stop190366" />
      <stop
         style="stop-color:#e59501;stop-opacity:1"
         offset="1"
         id="stop190368" />
    </linearGradient>
    <linearGradient
       inkscape:collect="always"
       xlink:href="#linearGradient190370"
       id="linearGradient748"
       gradientUnits="userSpaceOnUse"
       gradientTransform="matrix(0.12206302,0,0,0.12206302,73.927412,23.154216)"
       x1="-229.60646"
       y1="-5.6248026"
       x2="-229.60646"
       y2="68.238274" />
    <linearGradient
       inkscape:collect="always"
       xlink:href="#linearGradient190370"
       id="linearGradient750"
       gradientUnits="userSpaceOnUse"
       gradientTransform="matrix(0.12206302,0,0,0.12206302,74.456579,23.154216)"
       x1="-229.60646"
       y1="-5.6248026"
       x2="-229.60646"
       y2="68.238274" />
    <linearGradient
       inkscape:collect="always"
       xlink:href="#linearGradient190370"
       id="linearGradient752"
       gradientUnits="userSpaceOnUse"
       gradientTransform="matrix(0.12206302,0,0,0.12206302,74.985746,23.154216)"
       x1="-229.60646"
       y1="-5.6248026"
       x2="-229.60646"
       y2="68.238274" />
    <linearGradient
       inkscape:collect="always"
       xlink:href="#linearGradient190370"
       id="linearGradient754"
       gradientUnits="userSpaceOnUse"
       gradientTransform="matrix(0.12206302,0,0,0.12206302,75.514913,23.154216)"
       x1="-229.60646"
       y1="-5.6248026"
       x2="-229.60646"
       y2="68.238274" />
    <linearGradient
       inkscape:collect="always"
       xlink:href="#linearGradient190370"
       id="linearGradient756"
       gradientUnits="userSpaceOnUse"
       gradientTransform="matrix(0.12206302,0,0,0.12206302,75.514913,23.154216)"
       x1="-229.60646"
       y1="-5.6248026"
       x2="-229.60646"
       y2="68.238274" />
    <linearGradient
       inkscape:collect="always"
       xlink:href="#linearGradient190370"
       id="linearGradient758"
       gradientUnits="userSpaceOnUse"
       gradientTransform="matrix(0.12206302,0,0,0.12206302,76.04408,23.154216)"
       x1="-229.60646"
       y1="-5.6248026"
       x2="-229.60646"
       y2="68.238274" />
    <linearGradient
       inkscape:collect="always"
       xlink:href="#linearGradient190370"
       id="linearGradient760"
       gradientUnits="userSpaceOnUse"
       gradientTransform="matrix(0.12206302,0,0,0.12206302,76.573247,23.154216)"
       x1="-229.60646"
       y1="-5.6248026"
       x2="-229.60646"
       y2="68.238274" />
    <linearGradient
       inkscape:collect="always"
       xlink:href="#linearGradient190370"
       id="linearGradient762"
       gradientUnits="userSpaceOnUse"
       gradientTransform="matrix(0.12206302,0,0,0.12206302,77.102414,23.154216)"
       x1="-229.60646"
       y1="-5.6248026"
       x2="-229.60646"
       y2="68.238274" />
    <linearGradient
       inkscape:collect="always"
       xlink:href="#linearGradient190370"
       id="linearGradient764"
       gradientUnits="userSpaceOnUse"
       gradientTransform="matrix(0.12206302,0,0,0.12206302,77.48264,23.154216)"
       x1="-229.60646"
       y1="-5.6248026"
       x2="-229.60646"
       y2="68.238274" />
  </defs>
  <g
     inkscape:label="Layer 1"
     inkscape:groupmode="layer"
     id="layer1">
    <rect
       style="fill:#e9c6af;fill-opacity:1;stroke-width:0.356851;stroke-linecap:round;paint-order:stroke fill markers;stop-color:#000000"
       id="rect398"
       width="84.666664"
       height="47.625"
       x="1.8441895e-06"
       y="-2.3187499e-07"
       ry="0" />
    <path
       id="rect398-7"
       style="fill:url(#linearGradient1385);fill-opacity:1;stroke-width:0.325149;stroke-linecap:round;paint-order:stroke fill markers;stop-color:#000000"
       d="M 42.333333,24.188617 A 70.555432,17.059213 0 0 0 7.3722222e-7,27.612541 V 43.7454 C 7.3722222e-7,45.894648 3.8287796,47.625 8.5844402,47.625 H 76.082227 c 4.755653,0 8.584437,-1.730352 8.584437,-3.8796 V 27.601444 A 70.555432,17.059213 0 0 0 42.333333,24.188617 Z" />
    <g
       id="g2141">
      <path
         id="rect187636"
         style="fill-opacity:0.999418;stroke:#000000;stroke-width:3.20723;stroke-linejoin:round;stroke-miterlimit:63;paint-order:stroke fill markers"
         d="m 21.348099,21.508339 h 52.279178 v 4.388902 H 21.348099 Z" />
      <path
         id="path142-9-1-0"
         style="fill:#000000;stroke:none;stroke-width:0.0601129"
         d="m 23.705622,17.635535 c -1.222028,0.101703 -2.770571,1.004154 -3.331007,1.507943 -0.338888,-0.112903 -0.688007,-0.192643 -1.040351,-0.238281 -0.856521,-0.134738 -1.756915,-0.05354 -2.593137,0.230279 -0.583328,-0.508185 -2.100164,-1.382134 -3.301713,-1.482134 -0.06155,0.165176 -0.111992,0.330337 -0.154337,0.482948 -0.03939,0.124861 -0.07171,0.23946 -0.09781,0.346676 -0.248754,0.93095 -0.337193,1.850427 -0.356807,2.602941 -0.0047,0.1305 -0.0077,0.260421 -0.0088,0.389261 0.0012,-0.0059 0.0025,-0.01188 0.0038,-0.01781 1.2e-5,0.0066 2.44e-4,0.01228 2.44e-4,0.01884 -6.6e-5,0.0056 -2.44e-4,0.01122 -2.44e-4,0.01677 10e-5,-7.33e-4 2.44e-4,-0.0014 3.66e-4,-0.0021 0.0018,0.384244 0.01956,0.702271 0.038,0.933114 -0.304227,0.624946 -0.472494,1.277772 -0.472494,1.909783 0,0.06948 0.0024,0.137828 0.0065,0.205374 -0.004,0.07541 -0.0065,0.15063 -0.0065,0.225567 0,2.760609 2.75489,4.10611 6.153197,4.10611 1.120268,0 2.170526,-0.146268 3.075305,-0.441202 1.87058,-0.593263 3.133828,-1.813503 3.133828,-3.682715 0,-0.07494 -0.0024,-0.150157 -0.0065,-0.225568 0.004,-0.06755 0.0065,-0.135898 0.0065,-0.205375 0,-0.630316 -0.167422,-1.281329 -0.470107,-1.904748 0.01815,-0.235556 0.03532,-0.553172 0.03607,-0.936019 0.0013,0.0059 0.0026,0.01185 0.0038,0.01781 -0.0011,-0.12884 -0.0041,-0.258762 -0.0088,-0.389262 -0.01716,-0.658452 -0.08702,-1.444763 -0.270864,-2.254717 -9.9e-5,-3.67e-4 -2.44e-4,-8.55e-4 -2.44e-4,-0.0014 -0.02712,-0.120431 -0.05663,-0.241389 -0.08898,-0.36255 -0.05364,-0.220787 -0.1324,-0.536999 -0.248861,-0.849496 z" />
      <path
         id="path142-9-6"
         style="fill:#d45500;stroke:none;stroke-width:0.0509755"
         d="m 23.759165,24.617666 c 0,2.340975 -2.33611,3.48195 -5.217847,3.48195 -2.881737,0 -5.217847,-1.140975 -5.217847,-3.48195 0,-2.340982 2.33611,-4.995477 5.217847,-4.995477 2.881737,0 5.217847,2.654495 5.217847,4.995477 z"
         sodipodi:nodetypes="sssss" />
      <path
         id="path142-3"
         style="fill:#ff9955;stroke:none;stroke-width:0.0490807"
         d="m 14.212198,18.643303 c -0.588638,1.573991 -0.542476,3.266088 -0.486638,3.98645 -0.258891,0.530849 -0.402096,1.085533 -0.402096,1.622472 0,2.170175 2.336106,3.227917 5.217843,3.227917 2.881737,0 5.217843,-1.057742 5.217843,-3.227917 0,-0.506406 -0.127239,-1.028602 -0.358897,-1.531699 0.05793,-0.659212 0.135885,-2.432655 -0.479148,-4.077223 -1.174263,0.248158 -2.038658,0.920089 -2.485075,1.34098 -0.587362,-0.230449 -1.226308,-0.363031 -1.894723,-0.363031 -0.654784,0 -1.281213,0.127372 -1.858653,0.34919 -0.450623,-0.421653 -1.309178,-1.081725 -2.470456,-1.327139 z" />
      <path
         id="path284-8"
         style="fill:#d45500;stroke:none;stroke-width:0.134045"
         d="m 18.305268,19.619523 c -0.306145,0.01761 -0.60578,0.05896 -0.896343,0.123188 a 0.49567529,1.3472852 0 0 0 -0.03691,0.509705 0.49567529,1.3472852 0 0 0 0.495685,1.34727 0.49567529,1.3472852 0 0 0 0.495685,-1.34727 0.49567529,1.3472852 0 0 0 -0.05812,-0.632893 z" />
      <path
         id="path284-7-5"
         style="fill:#d45500;stroke:none;stroke-width:0.134045"
         d="m 18.897945,19.639766 c 0.306144,0.01761 0.60578,0.05896 0.896344,0.123187 a 0.49567529,1.3472852 0 0 1 0.03691,0.509705 0.49567529,1.3472852 0 0 1 -0.495684,1.347271 0.49567529,1.3472852 0 0 1 -0.495686,-1.347271 0.49567529,1.3472852 0 0 1 0.05812,-0.632892 z" />
      <path
         id="path1369-6"
         style="fill:#ffffff;stroke-width:0.0322175"
         d="m 17.703604,24.572282 a 1.662498,1.5066842 13.746489 0 1 -1.972907,1.068474 1.662498,1.5066842 13.746489 0 1 -1.25685,-1.858581 1.662498,1.5066842 13.746489 0 1 1.972906,-1.068474 1.662498,1.5066842 13.746489 0 1 1.256851,1.858581 z" />
      <path
         id="path1577-1"
         style="fill:#000000;stroke:none;stroke-width:0.0314832"
         d="m 16.177741,23.012078 a 1.1533827,1.1533827 0 0 0 -0.816115,0.339485 0.46385137,0.45437948 0 0 1 0.244217,-0.06842 0.46385137,0.45437948 0 0 1 0.46387,0.454346 0.46385137,0.45437948 0 0 1 -0.46387,0.454405 0.46385137,0.45437948 0 0 1 -0.463869,-0.454405 0.46385137,0.45437948 0 0 1 0.01156,-0.10078 1.1533827,1.1533827 0 0 0 -0.129178,0.528762 1.1533827,1.1533827 0 0 0 1.153382,1.153385 1.1533827,1.1533827 0 0 0 1.153383,-1.153385 1.1533827,1.1533827 0 0 0 -1.153383,-1.153389 z" />
      <path
         id="path1265-1"
         style="fill:#f4d7d7;stroke-width:0.0305033"
         d="m 15.844155,26.207612 a 0.55521685,0.38325512 8.8224846 0 1 -0.607429,0.293565 0.55521685,0.38325512 8.8224846 0 1 -0.489867,-0.463876 0.55521685,0.38325512 8.8224846 0 1 0.607429,-0.293565 0.55521685,0.38325512 8.8224846 0 1 0.489867,0.463876 z" />
      <path
         id="path1369-3-5"
         style="fill:#ffffff;stroke-width:0.0322175"
         d="m 19.385052,24.532597 a 1.5066842,1.662498 76.253511 0 0 1.972906,1.068474 1.5066842,1.662498 76.253511 0 0 1.256851,-1.858581 1.5066842,1.662498 76.253511 0 0 -1.972907,-1.068474 1.5066842,1.662498 76.253511 0 0 -1.25685,1.858581 z" />
      <path
         id="path1577-6-9"
         style="fill:#000000;stroke:none;stroke-width:0.0314832"
         d="m 20.910925,22.972403 a 1.1533827,1.1533827 0 0 0 -0.816115,0.339487 0.46385137,0.45437948 0 0 1 0.244217,-0.06843 0.46385137,0.45437948 0 0 1 0.46387,0.454344 0.46385137,0.45437948 0 0 1 -0.46387,0.454408 0.46385137,0.45437948 0 0 1 -0.463869,-0.454408 0.46385137,0.45437948 0 0 1 0.01156,-0.100777 1.1533827,1.1533827 0 0 0 -0.129178,0.528761 1.1533827,1.1533827 0 0 0 1.153381,1.153385 1.1533827,1.1533827 0 0 0 1.153383,-1.153385 1.1533827,1.1533827 0 0 0 -1.153383,-1.153389 z" />
      <path
         id="path1265-0-8"
         style="fill:#f4d7d7;stroke-width:0.0305033"
         d="m 21.244502,26.167935 a 0.38325512,0.55521685 81.177516 0 0 0.607429,0.293564 0.38325512,0.55521685 81.177516 0 0 0.489867,-0.463876 0.38325512,0.55521685 81.177516 0 0 -0.607429,-0.293565 0.38325512,0.55521685 81.177516 0 0 -0.489867,0.463877 z" />
      <path
         id="path432-5-9-4"
         style="fill:#ff6600;stroke:none;stroke-width:0.0306769px;stroke-linecap:butt;stroke-linejoin:miter;stroke-opacity:1"
         d="m 14.212198,18.643303 c -0.383731,1.029668 -0.287396,1.264701 -0.316761,2.318058 0.05583,-0.325267 0.181262,0.315165 0.325329,0.31507 0.08293,3.2e-5 0.04057,0.07058 0.104613,0.19958 0.482472,-0.568098 1.227213,-1.062372 1.942477,-1.41222 -0.534705,-0.520594 -1.330142,-1.059199 -2.055658,-1.420488 z"
         sodipodi:nodetypes="cccccc" />
      <path
         id="path432-3-6-2-8"
         style="fill:#d45500;stroke:none;stroke-width:0.0306769px;stroke-linecap:butt;stroke-linejoin:miter;stroke-opacity:1"
         d="m 14.212198,18.643303 c -0.352279,0.945274 -0.511338,2.115078 -0.520681,3.199941 0.06018,-0.299305 0.269299,-0.56865 0.405523,-0.56903 0.08339,7.7e-5 0.164147,0.07145 0.228339,0.201797 0.388951,-0.477059 0.909125,-0.820646 1.466858,-1.160493 -0.457971,-0.64747 -1.020271,-1.393464 -1.580039,-1.672215 z"
         sodipodi:nodetypes="cccccc" />
      <path
         id="path432-5-9-2-1"
         style="fill:#ff6600;stroke:none;stroke-width:0.0306769px;stroke-linecap:butt;stroke-linejoin:miter;stroke-opacity:1"
         d="m 22.921106,18.643303 c 0.383731,1.029668 0.287395,1.264701 0.31676,2.318058 -0.05583,-0.325267 -0.181262,0.315165 -0.325329,0.31507 -0.08293,3.2e-5 -0.04057,0.07058 -0.104613,0.19958 -0.482472,-0.568098 -1.227212,-1.062372 -1.942476,-1.41222 0.534705,-0.520594 1.330142,-1.059199 2.055658,-1.420488 z"
         sodipodi:nodetypes="cccccc" />
      <path
         id="path432-3-6-2-6-0"
         style="fill:#d45500;stroke:none;stroke-width:0.0306769px;stroke-linecap:butt;stroke-linejoin:miter;stroke-opacity:1"
         d="m 22.921106,18.643303 c 0.352278,0.945274 0.511337,2.115078 0.52068,3.199941 -0.06018,-0.299305 -0.269299,-0.56865 -0.405522,-0.56903 -0.08339,7.7e-5 -0.164147,0.07145 -0.22834,0.201797 -0.388951,-0.477059 -0.909124,-0.820646 -1.466857,-1.160493 0.457971,-0.64747 1.02027,-1.393464 1.580039,-1.672215 z"
         sodipodi:nodetypes="cccccc" />
      <path
         d="m 30.512606,20.955736 q 0,0.409606 -0.07948,0.825326 -0.07336,0.409606 -0.244541,0.794758 -0.171179,0.379039 -0.440174,0.715283 -0.268995,0.33013 -0.660261,0.586898 0.342358,0.874234 0.751964,1.68122 0.41572,0.800872 0.923142,1.546722 l -1.528381,0.08559 -1.039299,-2.952833 q 0.02445,0.74585 0.06114,1.479473 0.03668,0.733624 0.0917,1.448906 h -1.4917 q 0.09782,-1.38777 0.140611,-2.775541 0.04891,-1.38777 0.04891,-2.793881 0,-0.813099 -0.01223,-1.620084 -0.01223,-0.813099 -0.04891,-1.638425 0.324016,-0.09782 0.654147,-0.128384 0.336244,-0.03057 0.568558,-0.03057 0.165065,0 0.397379,0.03668 0.238427,0.03057 0.495195,0.134497 0.256768,0.10393 0.507423,0.293449 0.256768,0.18952 0.452401,0.50131 0.201746,0.305676 0.324017,0.751963 0.128384,0.440174 0.128384,1.05764 z m -2.329253,2.292572 q 0.213973,-0.06114 0.372925,-0.177292 0.165065,-0.122271 0.287335,-0.275109 0.122271,-0.152838 0.201747,-0.324017 0.08559,-0.171178 0.140611,-0.342357 0.12227,-0.397379 0.140611,-0.868121 0,-0.01223 -0.0061,-0.146724 0,-0.140611 -0.03057,-0.348471 -0.03057,-0.20786 -0.0917,-0.452401 -0.05502,-0.244541 -0.165065,-0.470742 -0.110044,-0.232314 -0.281223,-0.409606 -0.171178,-0.177292 -0.415719,-0.250654 -0.07336,0.959823 -0.116157,1.913533 -0.03668,0.947597 -0.03668,1.913534 z"
         style="font-size:12.5205px;line-height:1.25;font-family:'Mouse Memoirs';-inkscape-font-specification:'Mouse Memoirs';fill:url(#linearGradient748);stroke:#000000;stroke-width:1.97303;stroke-linecap:square;stroke-linejoin:round;stroke-miterlimit:63;paint-order:stroke fill markers"
         id="path683" />
      <path
         d="m 35.28456,23.223854 q 0,0.965937 -0.01223,1.931874 -0.0061,0.965937 -0.03668,2.01135 l -1.063753,-0.06114 v -0.825326 q -0.183406,0.33013 -0.41572,0.507422 -0.232314,0.171179 -0.440174,0.256768 -0.244541,0.09782 -0.482968,0.110044 -0.293449,0 -0.550217,-0.128384 -0.256768,-0.134498 -0.446288,-0.354585 -0.189519,-0.220086 -0.299562,-0.501309 -0.10393,-0.287335 -0.10393,-0.593012 0,-0.348471 0.146724,-0.684714 0.152838,-0.342358 0.513536,-0.617467 0.482969,-0.372925 0.837553,-0.623579 0.354585,-0.250655 0.586899,-0.452401 0.238427,-0.20786 0.348471,-0.391266 0.116157,-0.189519 0.116157,-0.43406 0,-0.403493 -0.134498,-0.599125 -0.134497,-0.201747 -0.354584,-0.201747 -0.134498,0 -0.232314,0.07336 -0.0917,0.06725 -0.152838,0.183406 -0.05502,0.110044 -0.08559,0.250655 -0.02445,0.134497 -0.02445,0.268995 0,0.0917 0.0061,0.201746 0.01223,0.110044 0.04279,0.232314 l -1.406111,0.02445 q -0.01223,-0.10393 -0.01834,-0.195632 -0.0061,-0.09782 -0.0061,-0.18952 0,-0.379038 0.128384,-0.74585 0.128384,-0.372925 0.372925,-0.660261 0.250655,-0.293449 0.60524,-0.470741 0.354584,-0.177292 0.813098,-0.177292 0.593012,0 0.93537,0.250654 0.348471,0.244541 0.525763,0.648034 0.183406,0.403493 0.232314,0.917029 0.05502,0.507422 0.05502,1.039299 z m -1.375544,1.730128 q 0.03057,-0.152838 0.05502,-0.348471 0.02445,-0.165065 0.04279,-0.397379 0.01834,-0.238428 0.03057,-0.531877 -0.09782,0.134497 -0.189519,0.238427 -0.0917,0.10393 -0.171179,0.183406 -0.0917,0.0917 -0.171178,0.165065 -0.140611,0.116157 -0.299563,0.262882 -0.158952,0.140611 -0.293449,0.299563 -0.128384,0.158951 -0.220087,0.33013 -0.08559,0.165065 -0.08559,0.324017 0,0.171179 0.116157,0.317903 0.116156,0.140611 0.287335,0.140611 0.128384,0 0.262882,-0.07336 0.140611,-0.07336 0.262881,-0.20786 0.128384,-0.134497 0.226201,-0.31179 0.09782,-0.177292 0.146724,-0.391265 z"
         style="font-size:12.5205px;line-height:1.25;font-family:'Mouse Memoirs';-inkscape-font-specification:'Mouse Memoirs';fill:url(#linearGradient750);stroke:#000000;stroke-width:1.97303;stroke-linecap:square;stroke-linejoin:round;stroke-miterlimit:63;paint-order:stroke fill markers"
         id="path685" />
      <path
         d="m 38.711538,28.542621 q 0,0.183406 -0.06725,0.336244 -0.06725,0.152838 -0.18952,0.262882 -0.116157,0.116157 -0.275108,0.183405 -0.152838,0.07336 -0.324017,0.09782 -0.183406,0.03057 -0.324017,0.01834 -0.140611,-0.01223 -0.244541,-0.04279 -0.116157,-0.03057 -0.201746,-0.07948 v -0.672488 q 0.02445,0.03057 0.08559,0.04891 0.06725,0.02445 0.140611,0.03668 0.07336,0.01834 0.140611,0.02445 0.07336,0.01223 0.116157,0.01223 0.140611,0 0.244541,-0.05502 0.110044,-0.04891 0.110044,-0.220087 0,-0.07948 -0.04279,-0.134498 -0.03668,-0.05502 -0.09782,-0.0917 -0.06114,-0.03057 -0.134498,-0.04891 -0.07336,-0.01223 -0.140611,-0.01223 -0.08559,0 -0.177292,0.0061 -0.08559,0.01223 -0.171179,0.0428 l 0.409606,-1.112662 q -0.366811,-0.201746 -0.599125,-0.531877 -0.226201,-0.336244 -0.354585,-0.758077 -0.128384,-0.427947 -0.177292,-0.917029 -0.04279,-0.495195 -0.04279,-1.008732 0,-0.317903 0.01223,-0.703055 0.01834,-0.391266 0.07336,-0.782531 0.06114,-0.397379 0.177292,-0.770304 0.12227,-0.372925 0.33013,-0.660261 0.20786,-0.293449 0.51965,-0.464628 0.317903,-0.177292 0.764191,-0.177292 0.195633,0 0.379038,0.03057 0.183406,0.03057 0.336244,0.07948 0.152838,0.04279 0.262882,0.09782 0.110043,0.04891 0.158951,0.0917 l -0.09782,1.430565 q -0.08559,-0.110043 -0.20786,-0.171178 -0.12227,-0.06114 -0.244541,-0.0917 -0.12227,-0.03057 -0.2262,-0.03668 -0.10393,-0.01223 -0.146725,-0.01223 -0.183406,0 -0.33013,0.158951 -0.140611,0.158952 -0.244541,0.452401 -0.09782,0.293449 -0.152838,0.715283 -0.04891,0.415719 -0.04891,0.935369 0,0.501309 0.06725,0.917029 0.07336,0.409606 0.250655,0.709169 0.177292,0.293449 0.476855,0.470741 0.299562,0.177292 0.758077,0.20786 l -0.03668,1.051526 q -0.10393,0.01223 -0.20786,0.01834 -0.09782,0.0061 -0.195633,0.0061 -0.232314,0 -0.43406,-0.02445 -0.201747,-0.02445 -0.379039,-0.07336 l -0.09782,0.409606 q 0.177292,-0.0061 0.324017,0.04891 0.146724,0.06114 0.250654,0.165065 0.110044,0.110043 0.165065,0.256768 0.06114,0.152838 0.06114,0.33013 z"
         style="font-size:12.5205px;line-height:1.25;font-family:'Mouse Memoirs';-inkscape-font-specification:'Mouse Memoirs';fill:url(#linearGradient752);stroke:#000000;stroke-width:1.97303;stroke-linecap:square;stroke-linejoin:round;stroke-miterlimit:63;paint-order:stroke fill markers"
         id="path687" />
      <path
         d="m 44.033708,23.223854 q 0,0.965937 -0.01223,1.931874 -0.0061,0.965937 -0.03668,2.01135 l -1.063753,-0.06114 v -0.825326 q -0.183406,0.33013 -0.41572,0.507422 -0.232314,0.171179 -0.440174,0.256768 -0.244541,0.09782 -0.482969,0.110044 -0.293449,0 -0.550217,-0.128384 -0.256768,-0.134498 -0.446287,-0.354585 -0.189519,-0.220086 -0.299563,-0.501309 -0.10393,-0.287335 -0.10393,-0.593012 0,-0.348471 0.146725,-0.684714 0.152838,-0.342358 0.513536,-0.617467 0.482968,-0.372925 0.837553,-0.623579 0.354584,-0.250655 0.586898,-0.452401 0.238428,-0.20786 0.348471,-0.391266 0.116157,-0.189519 0.116157,-0.43406 0,-0.403493 -0.134497,-0.599125 -0.134498,-0.201747 -0.354585,-0.201747 -0.134497,0 -0.232314,0.07336 -0.0917,0.06725 -0.152838,0.183406 -0.05502,0.110044 -0.08559,0.250655 -0.02445,0.134497 -0.02445,0.268995 0,0.0917 0.0061,0.201746 0.01223,0.110044 0.0428,0.232314 l -1.406111,0.02445 q -0.01223,-0.10393 -0.01834,-0.195632 -0.0061,-0.09782 -0.0061,-0.18952 0,-0.379038 0.128384,-0.74585 0.128384,-0.372925 0.372925,-0.660261 0.250655,-0.293449 0.605239,-0.470741 0.354584,-0.177292 0.813099,-0.177292 0.593012,0 0.935369,0.250654 0.348471,0.244541 0.525763,0.648034 0.183406,0.403493 0.232314,0.917029 0.05502,0.507422 0.05502,1.039299 z m -1.375543,1.730128 q 0.03057,-0.152838 0.05502,-0.348471 0.02445,-0.165065 0.04279,-0.397379 0.01834,-0.238428 0.03057,-0.531877 -0.09782,0.134497 -0.189519,0.238427 -0.0917,0.10393 -0.171179,0.183406 -0.0917,0.0917 -0.171179,0.165065 -0.140611,0.116157 -0.299562,0.262882 -0.158952,0.140611 -0.29345,0.299563 -0.128384,0.158951 -0.220087,0.33013 -0.08559,0.165065 -0.08559,0.324017 0,0.171179 0.116157,0.317903 0.116157,0.140611 0.287336,0.140611 0.128384,0 0.262881,-0.07336 0.140611,-0.07336 0.262882,-0.20786 0.128384,-0.134497 0.2262,-0.31179 0.09782,-0.177292 0.146725,-0.391265 z"
         style="font-size:12.5205px;line-height:1.25;font-family:'Mouse Memoirs';-inkscape-font-specification:'Mouse Memoirs';fill:url(#linearGradient754);stroke:#000000;stroke-width:1.97303;stroke-linecap:square;stroke-linejoin:round;stroke-miterlimit:63;paint-order:stroke fill markers"
         id="path689" />
      <path
         d="m 54.469496,22.734772 q -0.03057,0.220087 -0.06725,0.501309 -0.03057,0.281222 -0.05502,0.605239 -0.02445,0.317903 -0.04279,0.672488 -0.01223,0.348471 -0.01223,0.703055 0,0.07948 0.0061,0.232314 0.01223,0.146725 0.02445,0.330131 0.01223,0.177292 0.02445,0.372925 0.01834,0.189519 0.03057,0.360698 0.01834,0.165065 0.03057,0.287335 0.01223,0.122271 0.02445,0.165066 -0.238427,0.110043 -0.470741,0.165065 -0.232314,0.06114 -0.41572,0.0917 -0.213973,0.03057 -0.41572,0.03668 -0.220087,0 -0.476855,-0.07948 -0.250654,-0.07948 -0.507422,-0.268995 -0.256768,-0.195633 -0.495196,-0.525763 -0.238427,-0.336244 -0.421833,-0.837553 -0.183406,-0.507423 -0.293449,-1.210478 -0.110044,-0.703056 -0.110044,-1.638425 0,-0.93537 0.128384,-1.632311 0.134498,-0.696942 0.342358,-1.192138 0.213973,-0.501309 0.476855,-0.819212 0.268995,-0.324017 0.544103,-0.507423 0.275109,-0.189519 0.531877,-0.256768 0.262882,-0.07336 0.452401,-0.07336 0.177292,0.0061 0.348471,0.03668 0.146725,0.03057 0.305676,0.0917 0.165065,0.06114 0.287336,0.171178 l -0.122271,1.228819 q -0.171178,-0.08559 -0.324016,-0.12227 -0.146725,-0.04279 -0.281223,-0.04279 -0.256768,0 -0.458514,0.140611 -0.195633,0.134498 -0.342357,0.360698 -0.140612,0.2262 -0.244541,0.513536 -0.09782,0.287336 -0.158952,0.586899 -0.152838,0.703055 -0.171179,1.601743 0.01834,0.776418 0.140611,1.424452 0.05502,0.275108 0.134498,0.550217 0.08559,0.275109 0.201746,0.513536 0.122271,0.232314 0.281222,0.403493 0.165066,0.171178 0.379039,0.238427 -0.01223,-0.794758 -0.07948,-1.577289 -0.06114,-0.782532 -0.183406,-1.57729 z"
         style="font-size:12.5205px;line-height:1.25;font-family:'Mouse Memoirs';-inkscape-font-specification:'Mouse Memoirs';fill:url(#linearGradient756);stroke:#000000;stroke-width:1.97303;stroke-linejoin:round;stroke-miterlimit:63;paint-order:stroke fill markers"
         id="path691" />
      <path
         d="m 59.204769,23.223854 q 0,0.965937 -0.01223,1.931874 -0.0061,0.965937 -0.03668,2.01135 l -1.063753,-0.06114 v -0.825326 q -0.183406,0.33013 -0.41572,0.507422 -0.232314,0.171179 -0.440174,0.256768 -0.244541,0.09782 -0.482968,0.110044 -0.293449,0 -0.550217,-0.128384 -0.256769,-0.134498 -0.446288,-0.354585 -0.189519,-0.220086 -0.299563,-0.501309 -0.103929,-0.287335 -0.103929,-0.593012 0,-0.348471 0.146724,-0.684714 0.152838,-0.342358 0.513536,-0.617467 0.482969,-0.372925 0.837553,-0.623579 0.354585,-0.250655 0.586899,-0.452401 0.238427,-0.20786 0.348471,-0.391266 0.116157,-0.189519 0.116157,-0.43406 0,-0.403493 -0.134498,-0.599125 -0.134497,-0.201747 -0.354584,-0.201747 -0.134498,0 -0.232314,0.07336 -0.0917,0.06725 -0.152839,0.183406 -0.05502,0.110044 -0.08559,0.250655 -0.02445,0.134497 -0.02445,0.268995 0,0.0917 0.0061,0.201746 0.01223,0.110044 0.04279,0.232314 l -1.406111,0.02445 q -0.01223,-0.10393 -0.01834,-0.195632 -0.0061,-0.09782 -0.0061,-0.18952 0,-0.379038 0.128384,-0.74585 0.128384,-0.372925 0.372925,-0.660261 0.250655,-0.293449 0.605239,-0.470741 0.354585,-0.177292 0.813099,-0.177292 0.593012,0 0.93537,0.250654 0.348471,0.244541 0.525763,0.648034 0.183406,0.403493 0.232314,0.917029 0.05502,0.507422 0.05502,1.039299 z m -1.375544,1.730128 q 0.03057,-0.152838 0.05502,-0.348471 0.02445,-0.165065 0.04279,-0.397379 0.01834,-0.238428 0.03057,-0.531877 -0.09782,0.134497 -0.189519,0.238427 -0.0917,0.10393 -0.171179,0.183406 -0.0917,0.0917 -0.171178,0.165065 -0.140611,0.116157 -0.299563,0.262882 -0.158952,0.140611 -0.293449,0.299563 -0.128384,0.158951 -0.220087,0.33013 -0.08559,0.165065 -0.08559,0.324017 0,0.171179 0.116157,0.317903 0.116157,0.140611 0.287336,0.140611 0.128384,0 0.262882,-0.07336 0.140611,-0.07336 0.262881,-0.20786 0.128384,-0.134497 0.226201,-0.31179 0.09782,-0.177292 0.146724,-0.391265 z"
         style="font-size:12.5205px;line-height:1.25;font-family:'Mouse Memoirs';-inkscape-font-specification:'Mouse Memoirs';fill:url(#linearGradient758);stroke:#000000;stroke-width:1.97303;stroke-linejoin:round;stroke-miterlimit:63;paint-order:stroke fill markers"
         id="path693" />
      <path
         d="m 62.595065,18.86491 q -0.04891,0.495196 -0.08559,0.965937 -0.03668,0.464628 -0.06725,0.929256 0.232314,-0.01223 0.458514,-0.01834 0.232314,-0.01223 0.470742,-0.03668 l -0.04279,1.241045 q -0.232314,-0.01223 -0.476855,-0.01223 -0.238428,0 -0.470742,0 -0.04891,0.880348 -0.07336,1.724014 -0.01834,0.837553 -0.01834,1.693447 0,0.440174 0.0061,0.886461 0.01223,0.440174 0.02445,0.892575 l -1.344975,0.02445 q 0.04279,-1.314408 0.07336,-2.598248 0.03057,-1.289954 0.03057,-2.598249 -0.232313,0.01223 -0.470741,0.02445 -0.238427,0.0061 -0.470741,0.02445 l 0.04891,-1.338862 q 0.213973,0.03057 0.440174,0.04891 0.2262,0.01834 0.440173,0.03057 0,-0.476855 -0.01223,-0.935369 -0.0061,-0.458515 -0.02445,-0.93537 z"
         style="font-size:12.5205px;line-height:1.25;font-family:'Mouse Memoirs';-inkscape-font-specification:'Mouse Memoirs';fill:url(#linearGradient760);stroke:#000000;stroke-width:1.97303;stroke-linejoin:round;stroke-miterlimit:63;paint-order:stroke fill markers"
         id="path695" />
      <path
         d="m 67.837763,23.61512 q 0,0.74585 -0.06725,1.308294 -0.06725,0.562444 -0.195633,0.978164 -0.12227,0.409606 -0.299562,0.684715 -0.171179,0.268995 -0.385153,0.43406 -0.207859,0.165066 -0.4524,0.232314 -0.244541,0.06725 -0.50131,0.06725 -0.256768,0 -0.495195,-0.05502 -0.232314,-0.05502 -0.43406,-0.201746 -0.201747,-0.146725 -0.372925,-0.397379 -0.165066,-0.250655 -0.281223,-0.64192 -0.116157,-0.391266 -0.183405,-0.93537 -0.06114,-0.544103 -0.06114,-1.277727 0,-1.100434 0.158952,-1.80349 0.165065,-0.703055 0.427947,-1.106548 0.262881,-0.409606 0.599125,-0.562444 0.336244,-0.158952 0.690829,-0.158952 0.2262,0 0.452401,0.04891 0.232314,0.04279 0.43406,0.177292 0.20786,0.134497 0.385152,0.372925 0.177292,0.238427 0.305676,0.623579 0.128384,0.379039 0.201747,0.923143 0.07336,0.544104 0.07336,1.289954 z m -1.314408,0.04891 q 0,-0.586899 -0.04279,-0.959824 -0.04279,-0.379038 -0.116157,-0.599125 -0.07336,-0.220087 -0.177292,-0.299563 -0.10393,-0.08559 -0.2262,-0.08559 -0.140612,0 -0.244541,0.12227 -0.10393,0.116157 -0.177293,0.379039 -0.06725,0.262881 -0.10393,0.678601 -0.03668,0.409606 -0.03668,1.002618 0,0.599126 0.04279,0.996505 0.04891,0.391266 0.128384,0.629693 0.08559,0.232314 0.195633,0.330131 0.116157,0.09782 0.244541,0.09782 0.268995,0 0.391265,-0.556331 0.122271,-0.556331 0.122271,-1.736241 z"
         style="font-size:12.5205px;line-height:1.25;font-family:'Mouse Memoirs';-inkscape-font-specification:'Mouse Memoirs';fill:url(#linearGradient762);stroke:#000000;stroke-width:1.97303;stroke-linejoin:round;stroke-miterlimit:63;paint-order:stroke fill markers"
         id="path697" />
      <path
         d="m 71.672128,25.290226 q 0,0.544103 -0.183406,0.910915 -0.177292,0.360698 -0.452401,0.580785 -0.268995,0.220087 -0.593012,0.317903 -0.324017,0.0917 -0.611353,0.0917 -0.213973,-0.0061 -0.415719,-0.04891 -0.177293,-0.03668 -0.379039,-0.110044 -0.195633,-0.07947 -0.354584,-0.2262 l 0.04891,-1.393884 q 0.220087,0.177292 0.446287,0.275109 0.226201,0.09782 0.41572,0.146724 0.220087,0.05502 0.427947,0.06725 0.171178,-0.0917 0.262881,-0.256768 0.09782,-0.171179 0.09782,-0.379038 0,-0.177293 -0.08559,-0.372925 -0.07948,-0.201747 -0.250654,-0.379039 -0.171179,-0.171179 -0.409606,-0.409606 -0.232314,-0.244541 -0.452401,-0.550218 -0.213974,-0.305676 -0.366812,-0.678601 -0.146724,-0.372925 -0.146724,-0.813099 0,-0.43406 0.116157,-0.788645 0.12227,-0.360698 0.336243,-0.617466 0.220087,-0.256768 0.51965,-0.397379 0.305676,-0.140611 0.666374,-0.140611 0.29345,0 0.635807,0.0917 0.342358,0.08559 0.72751,0.275109 l -0.09782,1.424451 q -0.158951,-0.140611 -0.336244,-0.2262 -0.177292,-0.0917 -0.33013,-0.140611 -0.177292,-0.05502 -0.348471,-0.07336 -0.232314,0.04279 -0.397379,0.244541 -0.165065,0.195633 -0.165065,0.507423 0,0.293449 0.116157,0.513536 0.12227,0.213973 0.299562,0.409606 0.183406,0.18952 0.39738,0.385152 0.213973,0.18952 0.397379,0.434061 0.189519,0.244541 0.317903,0.562444 0.134498,0.317903 0.146725,0.764191 z"
         style="font-size:12.5205px;line-height:1.25;font-family:'Mouse Memoirs';-inkscape-font-specification:'Mouse Memoirs';fill:url(#linearGradient764);stroke:#000000;stroke-width:1.97303;stroke-linejoin:round;stroke-miterlimit:63;paint-order:stroke fill markers"
         id="path699" />
      <g
         aria-label="de"
         id="text2255-3-4-8-1-8"
         style="font-size:13.0635px;line-height:1.25;font-family:Alkatra;-inkscape-font-specification:Alkatra;fill:#ffffff;stroke-width:0.326591"
         transform="translate(1.0583333)">
        <path
           d="m 46.326984,21.120494 -0.07898,4.53953 H 45.64147 v -0.322221 q -0.09161,0.135839 -0.176906,0.211655 -0.08529,0.07266 -0.151634,0.107407 -0.07897,0.04107 -0.145315,0.05054 -0.161111,0 -0.319062,-0.09477 -0.157952,-0.09793 -0.284313,-0.322221 -0.123203,-0.224292 -0.202179,-0.587581 -0.07897,-0.366447 -0.07897,-0.906642 0,-0.413833 0.06634,-0.726578 0.0695,-0.315903 0.183224,-0.527558 0.113725,-0.211655 0.2622,-0.319063 0.148475,-0.107407 0.309585,-0.107407 0.08529,0.0063 0.170588,0.04423 0.07266,0.03475 0.161111,0.104248 0.08845,0.0695 0.167429,0.19586 l -0.04107,-1.30784 z m -0.666556,2.975809 q -0.0063,-0.214814 -0.0158,-0.439106 -0.0063,-0.224291 -0.04107,-0.407515 -0.03475,-0.186383 -0.107408,-0.303267 -0.0695,-0.120043 -0.199019,-0.120043 -0.120043,0 -0.189542,0.09793 -0.06634,0.09793 -0.101089,0.252722 -0.03159,0.154793 -0.03791,0.341176 -0.0063,0.186383 -0.0063,0.363289 0,0.123202 0.0032,0.259041 0.0063,0.135838 0.01895,0.271676 0.01264,0.13268 0.03791,0.252723 0.02527,0.120043 0.06318,0.214814 0.03791,0.09161 0.09161,0.145316 0.05686,0.0537 0.132679,0.0537 0.09477,0 0.161111,-0.07582 0.06634,-0.07898 0.107407,-0.211656 0.04423,-0.132679 0.06318,-0.309585 0.01895,-0.180065 0.01895,-0.385402 z"
           style="font-size:6.4697px;font-family:'Mouse Memoirs';-inkscape-font-specification:'Mouse Memoirs'"
           id="path678" />
        <path
           d="m 48.481445,25.536822 q -0.29379,0.101089 -0.537036,0.13268 -0.240086,0.03159 -0.394879,0.03159 -0.192701,0 -0.338017,-0.07582 -0.145315,-0.07582 -0.252722,-0.202178 -0.104248,-0.126361 -0.173747,-0.290631 -0.0695,-0.167429 -0.110566,-0.350653 -0.04107,-0.183224 -0.06002,-0.369607 -0.01579,-0.189542 -0.01579,-0.35697 0,-0.416993 0.06634,-0.767645 0.06634,-0.353812 0.192701,-0.609694 0.126361,-0.255881 0.312744,-0.398038 0.186383,-0.145315 0.42331,-0.145315 0.19586,0 0.356971,0.09793 0.161111,0.09793 0.274836,0.300108 0.113725,0.202178 0.173747,0.514922 0.06318,0.309585 0.06318,0.736055 0,0.120043 -0.0063,0.243245 -0.0032,0.123203 -0.0158,0.255882 L 47.3221,24.431158 q 0.01264,0.116884 0.03791,0.221132 0.02843,0.104248 0.07266,0.186383 0.04738,0.07898 0.110566,0.126361 0.06318,0.04739 0.154793,0.04739 0.170587,0 0.341175,-0.01895 0.170588,-0.02211 0.356971,-0.05054 z m -1.17832,-1.642697 0.5244,-0.09793 v -0.120043 q 0,-0.268518 -0.04107,-0.413834 -0.04107,-0.148474 -0.08845,-0.217973 -0.05686,-0.08214 -0.129521,-0.09477 -0.09161,0.0095 -0.145315,0.08529 -0.0537,0.07582 -0.08214,0.19586 -0.02527,0.116884 -0.03159,0.265359 -0.0063,0.148474 -0.0063,0.300108 z"
           style="font-size:6.4697px;font-family:'Mouse Memoirs';-inkscape-font-specification:'Mouse Memoirs'"
           id="path680" />
      </g>
    </g>
  </g>
</svg>
